<?xml version="1.0" encoding="UTF-8"?>
<svg id="_圖層_1" data-name="圖層_1" xmlns="http://www.w3.org/2000/svg" version="1.1" viewBox="0 0 660.4 533.3">
  <!-- Generator: Adobe Illustrator 29.0.1, SVG Export Plug-In . SVG Version: 2.1.0 Build 192)  -->
  <path class="st0" d="M527.6,321.5c-15,0-27-12-27-27s12-27,27-27,27,12,27,27-12,27-27,27M394.7,321.5c-15,0-27-12-27-27s12-27,27-27,27,12,27,27-12,27-27,27M591.8,472.8c42-30.2,68.6-75.2,68.6-124.7,0-91.5-88.5-165.3-198.3-165.3s-198.3,73.8-198.3,165.3,88.5,165.3,198.3,165.3,44.2-3,64.9-8.9c1.5-.7,3.7-.7,5.9-.7,3.7,0,7.4,1.5,10.3,2.9l43.5,25.1c1.5.7,2.2,1.5,3.7,1.5,3.7,0,6.6-2.9,6.6-6.6,0,0,0,0,0,0,0-1.5-.7-3-.7-5.2s-5.9-20.7-8.8-33.2c-.7-1.5-.7-2.9-.7-4.4-.7-5.2,1.5-8.9,5.2-11.1"/>
  <path class="st0" d="M315.8,165.6c-17.2,0-30.8-13.6-30.8-30.8s13.6-30.8,30.8-30.8,30.8,13.6,30.8,30.8-13.6,30.8-30.8,30.8M157.9,165.6c-17.2,0-30.8-13.6-30.8-30.8s13.6-30.8,30.8-30.8,30.8,13.6,30.8,30.8-13.6,30.8-30.8,30.8M238.7,0C107.1,0,0,88.4,0,198.1s31.8,113.4,82.8,149.5c3.7,2.9,6.7,7.4,6.7,13.3s-.7,3.7-.7,5.2c-3.7,14.7-10.3,39-11.1,39.8-.7,2.2-1.5,3.7-1.5,5.9,0,4.4,3.7,8.1,8.1,8.1s3-.7,4.4-1.5l52.5-30.2c3.7-2.2,8.1-3.7,12.6-3.7s4.4,0,6.7.7c24.4,6.6,51,11,77.6,11h13.3c-5.2-15.5-8.1-31.7-8.1-48.6,0-99.4,97.5-180.4,217.2-180.4h13.3C456.7,72.2,357.6,0,238.7,0"/>
</svg>