<?xml version="1.0" encoding="UTF-8"?>
<svg id="_圖層_2" data-name="圖層 2" xmlns="http://www.w3.org/2000/svg" viewBox="0 0 540.19 63.3">
  <defs>
    <style>
      .cls-1 {
        fill-rule: evenodd;
      }

      .cls-1, .cls-2 {
        fill: #006b6e;
      }
    </style>
  </defs>
  <g id="Layer_1" data-name="Layer 1">
    <g>
      <path class="cls-1" d="M307.48,51.56v-2.36h-16.67c0,.72-.08,1.16-.24,1.33-.14.17-.71.49-1.72.96-1.01.49-1.58.73-1.72.73-.39,0-.59-.08-.59-.26l.16-4.48v-8.12c0-.61-.08-1.36-.26-2.25-.75.43-1.25.64-1.49.64-.3,0-.56-.16-.77-.45.11-3.16.17-6.16.17-8.99,0-.9,0-1.79-.02-2.64h-.19l-6.95,2.98-.68-.71,7.87-4.9c1.73-1.07,3.91-2.72,6.55-4.93,2.64-2.21,4.83-4.55,6.58-7.01.9.33,1.89.8,2.97,1.39,1.09.6,1.63,1.02,1.63,1.25,0,.07-.02.14-.05.21-.19.16-.48.25-.85.32-.37.07-.69.16-.94.3,4.95,3.52,12.04,6.17,21.28,7.98l-.19.66c-2.42.61-3.94,1.55-4.55,2.81-7.61-2.96-13.41-6.5-17.41-10.6l-4.45,3.57c-1.32,1.07-2.6,2.01-3.84,2.83v.05h8.79l2.03-2.3c.13-.13.27-.19.43-.19.2,0,.93.54,2.18,1.63,1.27,1.07,1.9,1.68,1.9,1.8,0,.25-.16.36-.47.36h-11.77l-2.62.45-.8-1.41h-.31c-1.24.77-2.62,1.56-4.14,2.37l2.76,1.31h20.25l1.7-1.31c.14-.11.29-.17.45-.17.25,0,.97.35,2.14,1.05,1.18.69,1.77,1.13,1.77,1.31s-.28.41-.83.72c-.54.3-.82.54-.87.73-.03.18-.05.92-.05,2.19l.08,5.4c-.29.41-.85.76-1.7,1.09l-1.3.49c1.43.7,2.14,1.19,2.14,1.45s-.22.52-.66.8c-.44.26-.67.49-.68.71-.02.21-.02.5-.02.85l.14,8.91c0,.22-.55.59-1.65,1.12-1.08.54-1.71.82-1.91.82-.39,0-.59-.17-.59-.5M296.78,27.2h-8.5v7.16h8.5v-7.16ZM290.03,27.71c3.26,1.24,4.9,2.47,4.9,3.7,0,.43-.2.93-.62,1.5-.4.57-.84.86-1.3.86s-.8-.34-1.05-1.03c-.74-2.02-1.52-3.5-2.34-4.45.05-.18.18-.37.41-.57M309.74,27.2h-9.21v7.16h1.1c1.27-2.03,2.37-4.37,3.3-7.01h.15c.34,0,1.59.64,3.76,1.93.02.07.02.14.02.21,0,.28-.17.48-.52.57-.34.09-.59.17-.73.24-.14.05-.4.28-.78.67-.37.39-.9.88-1.58,1.5-.67.59-1.41,1.23-2.21,1.88h6.69v-7.16ZM307.25,38.28l1.44-1.59s.1-.04.26-.04c.18,0,.44.07.75.21l.04-1.18h-21.23c-.31.47-.67.81-1.05,1.01l3.73,1.59h16.06ZM290.76,42.93h16.72v-3.34h-16.72v3.34ZM290.76,47.88h16.72v-3.65h-16.72v3.65Z"/>
      <path class="cls-1" d="M332.09,23.44l-.64-.56c4.83-4.92,7.9-8.86,9.23-11.8,1.28.64,2.8,1.59,4.58,2.85.03.15.04.25.04.31,0,.2-.35.4-1.06.56-.69.17-1.31.51-1.88,1.03-3.47,3.16-6.89,5.7-10.27,7.6M367.07,32.09v-1.13h-16.8c0,.66-.02,1.05-.07,1.16-.05.11-.48.37-1.3.75-.81.39-1.37.58-1.67.58-.16,0-.35-.14-.57-.43l.09-5.1c.03-2.11-.05-4.51-.26-7.2.57.17,1.38.46,2.43.86,1.07.4,1.62.6,1.62.6h4.97l.54-4.14h-7.54l-3.61.58-1.25-1.84h12.63c.2-1.54.31-3.05.31-4.52,0-.37,0-.73-.02-1.09,2.37.53,3.88.88,4.52,1.07.64.17.96.38.96.64,0,.23-.23.46-.68.69-.44.22-.67.4-.68.53l-.5,2.68h7.73l2.03-2.59c.1-.11.18-.17.28-.17.23,0,.97.54,2.19,1.65,1.23,1.1,1.84,1.76,1.84,1.99,0,.25-.16.38-.44.38h-13.9l-.59,4.14h7.04l1.64-1.58c.11-.12.26-.18.43-.18.24,0,.89.37,1.95,1.14,1.08.74,1.62,1.19,1.62,1.36,0,.22-.23.49-.68.82-.45.33-.68.71-.68,1.12l.11,5.78c0,.4-.42.78-1.25,1.15-.83.37-1.52.56-2.07.56-.27,0-.4-.08-.4-.26M356.85,29.68h3.13v-6.24h-3.13v6.24ZM350.33,29.68h3.23v-6.24h-3.23v6.24ZM367.12,23.44h-3.68v6.24c.59,0,1.21.02,1.81.02s1.2,0,1.81-.02l.05-6.24ZM341.85,43.61l.18,6.27c0,.4-.52.82-1.57,1.27-1.04.48-1.68.71-1.96.71-.24,0-.46-.14-.65-.43.15-2.68.23-5.02.23-7.02v-13.9c-2.01,2.1-4.1,3.99-6.26,5.65l-.69-.47,4.59-6.11c1.84-2.44,3.78-5.79,5.82-10.05,2.92,1.34,4.38,2.25,4.38,2.72,0,.23-.18.41-.54.56-.36.12-.59.22-.68.27-.1.06-.51.55-1.27,1.46-.74.9-1.49,1.85-2.26,2.85l1.62.71c.23.1.33.24.33.41,0,.17-.21.41-.64.71-.42.3-.63.57-.63.81v13.57ZM342.95,34.32h25.7l2.34-2.44c.1-.11.24-.18.4-.18.28,0,1.06.56,2.35,1.65,1.3,1.09,1.95,1.68,1.95,1.78,0,.31-.19.47-.56.47h-27.25c-.46,0-1.67.18-3.64.55l-1.29-1.83ZM355.25,36.65c.17-.33.4-.49.69-.49s1.45.49,3.46,1.48c2.01.99,3.01,2.12,3.01,3.41,0,.48-.18,1.04-.56,1.65-.36.62-.89.92-1.58.92-.44,0-1-.8-1.65-2.41-.66-1.62-1.79-3.13-3.37-4.55M366.01,37.92l.33-.8c2.04.56,3.86,1.29,5.47,2.19,1.62.88,2.62,1.61,3.02,2.19.38.57.59,1.24.59,2.01,0,.88-.21,1.61-.66,2.19-.42.56-.91.83-1.48.83-.4,0-.75-.21-1.07-.67-.31-.44-.77-1.29-1.36-2.55-1.76-2.68-3.37-4.48-4.83-5.39M351.06,47.4v-8.56l-.1-1.52c3.29.73,4.93,1.31,4.93,1.73,0,.16-.23.44-.68.84-.45.38-.68.77-.68,1.16v4.51c0,.6.25,1.05.73,1.35.5.3,2.56.45,6.17.45,1.02,0,1.81-.33,2.38-.99.57-.66,1.08-2.75,1.53-6.25.28,0,.64.07,1.06.21-.11.93-.16,1.66-.16,2.19,0,1.11.16,1.91.5,2.4.34.48,1,1.03,1.98,1.65-.15.56-.5,1.22-1.07,1.94-.56.72-1.34,1.21-2.34,1.49-1.01.28-3.33.4-6.96.4-1.51,0-2.31,0-2.39,0l-2.13-.33c-.37-.06-.93-.33-1.67-.82-.72-.48-1.08-1.1-1.08-1.84M347.28,38.18l1.01.18c.02.51.02,1,.02,1.46,0,3.04-.31,5.19-.92,6.47-.61,1.27-1.62,1.9-3.01,1.9-.33,0-.7-.17-1.11-.49-.41-.33-.61-.72-.61-1.18,0-.51.41-1.17,1.22-1.97,1.84-1.8,2.97-3.93,3.39-6.37"/>
      <path class="cls-1" d="M421.43,22.09h-2.89v2.72h2.8l.05,1.14h-2.84v3.42h4.83v-11.58l-.1-4.07c1.63.33,2.9.67,3.8,1.03.9.34,1.34.57,1.34.69,0,.13-.21.37-.64.73-.42.34-.64.55-.64.62v13.3c0,.29-.14.51-.42.65l-1.36.7,2.21,1.88c.67.57,1.01.92,1.01,1.05,0,.22-.09.32-.28.32h-34.4c-.25,0-1.34.18-3.27.56l-1.37-1.72h33.54l1.2-1.65c-.42-.07-.63-.18-.63-.32v-1.05h-29c-.09,0-.31.22-.62.65-.32.41-.56.62-.73.62l-1.88-.95c-1.37-.68-2.05-1.16-2.05-1.43,0-.08.22-.33.68-.72.47-.4.7-.67.7-.8v-9.3l-.12-4.99c3.18.85,4.77,1.4,4.77,1.69,0,.18-.15.44-.45.82-.3.37-.46.62-.46.73v12.54h4.41v-3.42h-2.9v-1.14h2.9v-2.72h-2.9v-1.13h2.9v-2.76h-2.9l.05-1.16h2.8l-.16-4.9c.81.15,1.78.41,2.9.77,1.13.37,1.69.6,1.69.71,0,.18-.19.44-.59.75-.38.31-.57.49-.57.53v2.14h2.8l.05,1.16h-2.86v2.76h2.86l.04,1.13h-2.9v2.72h2.8v1.14h-2.8v3.42h4.88v-14.73l-.1-3.21c3.11.81,4.66,1.36,4.66,1.65,0,.11-.14.33-.43.64-.26.32-.4.54-.4.68v14.98h4.83v-3.42h-2.8l-.05-1.14h2.85v-2.72h-2.9v-1.13h2.9v-2.76h-2.9v-1.16h2.9l-.14-4.94c2.9.71,4.36,1.22,4.36,1.52,0,.17-.16.43-.49.75-.34.31-.49.49-.49.53v2.14h2.89v1.16h-2.89v2.76h2.89v1.13ZM412.86,48.84h11.05l1.93-2.47c.06-.08.17-.12.33-.12.2,0,1.04.52,2.52,1.57,1.49,1.05,2.23,1.67,2.23,1.88,0,.11-.03.22-.07.3l-.69.15h-39.08c-.17,0-1.15.13-2.95.39l-1.1-1.71h16.3v-.26c0-.07-.37-.8-1.1-2.19-.73-1.38-1.34-2.26-1.84-2.63l.49-.66h-1.65c.05.13.07.27.07.43,0,.28-.07.51-.2.68-.13.18-.64.41-1.53.71-.9.28-1.53.42-1.87.42-.37,0-.57-.12-.57-.36l.1-2.93v-3.3c0-1.46-.05-2.51-.15-3.14l4.74,1.6h18.19l1.43-1.57c.06-.07.15-.11.26-.11.28,0,1.01.38,2.19,1.12,1.18.75,1.77,1.2,1.77,1.36,0,.21-.25.48-.74.8-.49.29-.74.58-.77.86-.02.26-.03.53-.03.8l.07,3.07c0,.32-.49.65-1.47.96-.97.32-1.59.47-1.86.47-.15,0-.3-.02-.4-.07l-.09.09c.11,0,.16.05.16.15,0,.19-.17.3-.51.33-.33.02-.57.05-.73.08-.14.02-.72.45-1.74,1.31-1.02.86-1.91,1.49-2.66,1.9l-.05.09ZM399.29,41.96h18.92v-3.6h-18.92v3.6ZM405.58,48.84h5.82c1.31-2.1,2.24-4.02,2.8-5.74h-12.79v.13c3.39,1.13,5.09,2.34,5.09,3.61,0,.5-.31,1.17-.92,2M418.16,44.81l.09-.08c-.03-.05-.05-.59-.05-1.62h-2.4v.13l2.36,1.57Z"/>
      <path class="cls-1" d="M467.98,26.95v-9.68l-.19-5.4c2.22.7,3.7,1.2,4.42,1.5l1.42.58c.19.09.28.26.28.54,0,.18-.07.33-.21.44-1.24.76-1.86,1.31-1.86,1.67v8.64l4.66-2.4,1.05-2.08c.13-.24.33-.36.62-.36.07,0,.16.02.25.06l4.14,1.63c.18.06.27.16.27.32,0,.2-.25.54-.73,1.03-.49.47-.73.74-.73.82l-.05,2.95c-.1,5.77-.33,9.41-.69,10.92-.36,1.51-1.84,2.69-4.42,3.56-.11-1.2-.68-2.14-1.7-2.85-1-.7-1.86-1.05-2.59-1.05l.14,4.02c0,.31-.41.6-1.25.88l-2.33.79c-.13.04-.2.07-.23.07-.3,0-.44-.11-.43-.32l.14-6.84v-8.08l-4.2,2.11v14.11c0,1.36.95,2.07,2.83,2.12l7.21.13,3.96-.15c1.1-.05,1.93-.21,2.48-.49.55-.31.95-.69,1.21-1.18.25-.49.58-1.72.99-3.71l.54-2.58.8.04c.11,2.62.32,4.46.61,5.5.32,1.03.97,1.67,1.96,1.95-.86,1.84-2.09,3.01-3.67,3.49-1.59.49-5.02.73-10.3.73s-8.71-.36-10.13-1.05c-1.41-.7-2.14-1.47-2.19-2.29l-.14-2.1v-12.72c-1.61.81-2.92,1.69-3.91,2.63l-2.52-.96,6.43-3.08v-8.29l-.26-3.64,3.44.98c1.02.29,1.59.48,1.7.56.11.09.16.21.16.37,0,.18-.2.46-.59.85-.39.36-.59.68-.59.92v6.4l4.2-2.01ZM471.84,26.65v6.11l.09,4.07c1.14.08,2.03.11,2.64.11,1.15,0,1.82-.08,2.02-.23.22-.18.34-.46.36-.84.02-.4.09-1.09.2-2.06.15-.98.22-2.6.22-4.86,0-1.47-.05-3.1-.15-4.88l-5.39,2.59ZM452.92,41.25l6.03-1.67.23.8c-5.14,2.43-9.57,4.66-13.31,6.7,0,.66-.32.99-.94.99-.34,0-.85-.67-1.53-1.99l-1.01-1.95c-.08-.16.27-.31,1.06-.45.79-.16,2.65-.64,5.61-1.46v-13.43h-2.75l-2.5.37-1.23-1.68h6.48v-7.14l-.19-6.2c2.11.54,3.58.95,4.41,1.23.83.27,1.29.46,1.37.56.09.1.14.24.14.4,0,.18-.32.46-.95.86-.61.41-.92.72-.92.96v9.34h1.1l1.34-1.83c.08-.14.25-.2.51-.2.21,0,.82.47,1.84,1.42,1.04.94,1.55,1.48,1.55,1.61,0,.21-.13.31-.38.31h-5.98v12.46Z"/>
      <path class="cls-1" d="M538.98,29.41h-33.98l-.3,7.12c-.16,3.54-.9,6.47-2.24,8.8-1.34,2.33-3.24,4.57-5.71,6.73l-.72-.54c3.34-4.8,5.02-9.68,5.02-14.65v-6.98l-.23-3.81.1-.05,4.78,2.06h23.89v-.04c-3.22-1.65-6.06-2.96-8.51-3.94-.4.1-1.04.31-1.9.64-3.17,1.23-7.53,2.24-13.1,3.05l-.23-.8c3.84-.96,7.74-2.34,11.69-4.11-.13-.15-1.5-.58-4.12-1.28-2.62-.71-4.78-1.19-6.46-1.43l.28-.92c4.88.53,9.28,1.24,13.19,2.14,1.33-.65,2.8-1.63,4.38-2.93.08,0,.12-.01.14-.05h-20.21c-.82,0-2.06.14-3.72.39l-1.06-1.72h17.86c-.85-2.11-2.05-3.67-3.57-4.69l.44-.7c3,.59,4.87,1.12,5.63,1.56.77.43,1.16,1,1.16,1.73,0,.55-.35,1.23-1.04,2.06l.09.05h10.23l2.08-2.53c.08-.1.23-.15.47-.15.31,0,1.15.53,2.5,1.57,1.35,1.04,2.02,1.67,2.02,1.88s-.15.39-.47.56h-9.21v.05c1.07.6,1.8,1.1,2.22,1.49.01.06.02.13.02.18,0,.23-.12.36-.36.39-1.31.1-2.44.41-3.36.91-.93.52-1.58.86-1.93,1.01,3.14.96,5.01,1.73,5.63,2.34.61.6.91,1.21.91,1.82,0,.34-.08.67-.28.98-.19.32-.41.48-.68.48v.04h2.19l2.07-2.36c.11-.13.28-.19.52-.19.41,0,1.23.55,2.47,1.65,1.24,1.1,1.86,1.7,1.86,1.82,0,.26-.15.4-.42.4M503.71,50.47l-1.16-1.88h16.21v-5.89h-6.36c-.72,0-1.82.15-3.3.44l-.97-1.75h10.63v-4.73h-7.28c-2.1,2.32-4.22,4.31-6.39,5.95l-.47-.35c3.06-3.78,5.12-7.82,6.17-12.14h.05l1.55.69c.75.31,1.48.59,2.19.84.71.22,1.06.47,1.06.73,0,.23-.48.51-1.43.85l-1.73,2.1h6.27v-5.75c3.65.79,5.49,1.39,5.49,1.8,0,.15-.24.41-.73.73-.47.33-.7.64-.7.94v2.27h7l1.98-2.27c.13-.13.28-.19.47-.19.31,0,1.09.51,2.35,1.52,1.26,1.01,1.89,1.63,1.89,1.86,0,.28-.14.41-.42.41h-13.26v4.73h5.89l2.21-2.63c.06-.07.23-.1.49-.1.22,0,.63.26,1.25.77l2.03,1.76c.73.64,1.1,1.02,1.1,1.13,0,.26-.15.39-.45.39h-12.53v5.89h10.6l2.15-2.42c.08-.1.26-.15.56-.15.17,0,.3.04.4.11l3.6,3.08c.05.04.07.15.07.3,0,.14-.12.27-.35.38h-32.42c-.95,0-2.18.2-3.72.58"/>
      <path class="cls-1" d="M22.12,17.17l4.9,10.81c.19.36.5,1.41,1.05,1.41.45,0,.54-.55.68-.87l9.44-22.79c.41-1,.91-2.27,1.64-3.09.5-.55.95-.69,1.63-.69.46,0,1.23.05,1.23-.54,0-.45-.41-.69-.77-.69-1.14,0-2.23.19-3.31.19s-2.28-.19-3.37-.19c-.4,0-.77.19-.77.59,0,.55.32.63.77.63.95,0,2.27-.08,2.27,1.19,0,.72-.4,1.68-.68,2.36l-7.73,18.67-3.85-8.72c-.27-.59-.87-1.77-.87-2.45,0-.82.68-2.14,1.05-2.91l2.08-4.35c.77-1.73,1.5-3.78,3.73-3.78.45,0,1.32.1,1.32-.63,0-.36-.27-.59-.59-.59-1.09,0-2.18.19-3.28.19s-2.18-.19-3.26-.19c-.46,0-.87.19-.87.69,0,.64.82.54,1.27.54.54,0,1.32.23,1.32.91,0,.64-.5,1.64-.78,2.24l-3,6.4-2.9-6.36c-.23-.55-.73-1.59-.73-2.14,0-.82.82-1.05,1.5-1.05.41,0,1.41.1,1.41-.54,0-.45-.45-.69-.77-.69-1.45,0-2.91.19-4.36.19s-3-.19-4.45-.19c-.37,0-.68.23-.68.64,0,.77.81.59,1.36.59,1.55,0,2.13,1.86,2.68,3l3.78,8.13c.31.73.9,1.95.9,2.63,0,.59-.32,1.23-.54,1.77l-3.32,7.08L8.21,5.1c-.27-.6-.72-1.5-.72-2.14,0-.95,1.1-1,1.77-1,.45,0,1.09.05,1.09-.59,0-.55-.41-.64-.82-.64-1.45,0-2.91.19-4.36.19-1.54,0-3-.19-4.45-.19-.41,0-.73.19-.73.55,0,.68.59.68,1.09.68.72,0,1.36.14,1.9.73.46.51,1.18,2.22,1.46,2.81l10.72,23.08c.14.31.32,1,.77,1,.5,0,.68-.63.81-1l5.36-11.4Z"/>
      <path class="cls-1" d="M53.15,16.17c0-1.59.13-1.68,1.72-1.68h12.58q1.59,0,1.59,1.68v8.13c0,2.85.23,3.77-2.95,3.77-.41,0-1.14-.05-1.14.55,0,.5.36.59.77.59,1.72,0,3.45-.19,5.18-.19s3.36.19,5.09.19c.41,0,.77-.09.77-.59,0-.6-.77-.55-1.18-.55-3.13-.05-2.96-.86-2.96-3.77V5.68c0-2.87-.22-3.73,2.96-3.73.41,0,1.18,0,1.18-.59,0-.5-.36-.64-.77-.64-1.73,0-3.45.19-5.18.19s-3.37-.19-5.09-.19c-.45,0-.77.13-.77.64,0,.59.73.59,1.14.59,3.18,0,2.95.87,2.95,3.73v5.86c0,1.54-.09,1.68-1.59,1.68h-12.72c-1.68,0-1.58,0-1.58-1.68v-5.86c0-2.87-.23-3.73,2.95-3.73.41,0,1.18,0,1.18-.59,0-.5-.36-.64-.77-.64-1.73,0-3.45.19-5.17.19s-3.37-.19-5.09-.19c-.46,0-.77.13-.77.64,0,.59.72.59,1.14.59,3.18,0,2.95.87,2.95,3.73v18.62c0,2.85.23,3.77-2.95,3.77-.41,0-1.14-.05-1.14.55,0,.5.37.59.77.59,1.73,0,3.46-.19,5.18-.19s3.36.19,5.09.19c.41,0,.77-.09.77-.59,0-.6-.77-.55-1.18-.55-3.13-.05-2.95-.86-2.95-3.77v-8.13Z"/>
      <path class="cls-1" d="M89.08,4.32c0-.77-.14-1.77.72-2.09.72-.28,2.72-.28,3.45-.28,1.54,0,3.5,0,5,.46,1.5.45,2.13,1.27,2.81,2.69l.68,1.27c.13.31.31.9.72.9.46,0,.41-.67.41-.95v-3.9c0-.58.23-1.68-.63-1.68-3.86,0-7.68.19-11.58.19-2.82,0-5.72-.19-8.54-.19-.41,0-.77.23-.77.68,0,.54.73.54,1.18.54,3.13,0,2.95.91,2.95,3.73v18.49c0,2.9.18,3.82-2.95,3.82-.45,0-1.18.04-1.18.54s.36.68.77.68c.45,0,.95-.04,1.41-.09.5-.04.96-.1,1.41-.1h17.76c.36,0,.45.05.51-.27l.67-4.82c.09-.36.19-.72.19-1.09,0-.32-.14-.49-.46-.49-.55,0-.87,1.22-1,1.54-1.55,4-4.05,4.09-7.95,4.09-3.58,0-5.58-.05-5.58-4.23v-7.9c0-1.54.45-1.54,2.26-1.54,1.37,0,3.73,0,5.5.41,1,.23,1.36,1.58,1.59,2.91.04.27.18.77.58.77.23,0,.5-.1.5-.81-.04-1.46-.14-2.82-.23-4.27.09-1.28.18-2.64.23-3.91,0-.37-.28-.45-.5-.45-.4,0-.54.5-.58.77-.23,1.31-.46,3-1.59,3.13-1.77.23-4.13.18-5.5.18-1.85,0-2.26,0-2.26-2.13v-6.59Z"/>
      <path class="cls-1" d="M116.77,4.32c0-.77-.13-1.77.73-2.09.73-.28,2.72-.28,3.45-.28,1.54,0,3.5,0,4.99.46,1.5.45,2.13,1.27,2.82,2.69l.69,1.27c.13.31.31.9.72.9.46,0,.41-.67.41-.95v-3.9c0-.58.23-1.68-.63-1.68-3.87,0-7.68.19-11.59.19-2.82,0-5.73-.19-8.54-.19-.41,0-.77.23-.77.68,0,.54.73.54,1.18.54,3.14,0,2.95.91,2.95,3.73v18.49c0,2.9.19,3.82-2.95,3.82-.45,0-1.18.04-1.18.54s.37.68.77.68c.45,0,.95-.04,1.41-.09.5-.04.96-.1,1.41-.1h17.77c.36,0,.45.05.5-.27l.68-4.82c.1-.36.19-.72.19-1.09,0-.32-.14-.49-.45-.49-.55,0-.87,1.22-1,1.54-1.55,4-4.04,4.09-7.95,4.09-3.59,0-5.59-.05-5.59-4.23v-7.9c0-1.54.45-1.54,2.27-1.54,1.36,0,3.72,0,5.5.41,1,.23,1.36,1.58,1.59,2.91.04.27.18.77.59.77.23,0,.5-.1.5-.81-.05-1.46-.14-2.82-.23-4.27.09-1.28.18-2.64.23-3.91,0-.37-.27-.45-.5-.45-.41,0-.55.5-.59.77-.23,1.31-.46,3-1.59,3.13-1.78.23-4.13.18-5.5.18-1.87,0-2.27,0-2.27-2.13v-6.59Z"/>
      <path class="cls-1" d="M144.43,5.68c0-2.86-.23-3.73,2.95-3.73.41,0,1.18,0,1.18-.59,0-.49-.36-.64-.77-.64-1.73,0-3.46.19-5.18.19s-3.36-.19-5.09-.19c-.45,0-.77.14-.77.64,0,.59.72.59,1.13.59,3.18,0,2.95.87,2.95,3.73v18.58c0,2.86.23,3.72-2.91,3.72-.46,0-1.18,0-1.18.59,0,.45.36.64.77.64,1.54,0,3-.19,4.54-.19,4.36,0,8.81.19,13.18.19,1.22,0,1.13-.54,1.18-1.73.05-1.59.5-3.18.5-4.72,0-.32,0-.64-.41-.64-.27,0-.45.36-.54.59-.5,1.22-1.31,2.9-2.36,3.76-1.27,1.05-3.36,1.5-5,1.5-4.08,0-4.17-1.64-4.17-5.09V5.68Z"/>
      <path class="cls-1" d="M161.41,14.77c0,8.27,7.68,14.8,15.85,14.8,8.63,0,15.81-6.04,15.81-14.8s-7.17-14.77-15.81-14.77c-8.17,0-15.85,6.5-15.85,14.77M188.94,14.77c0,3.4-.68,6.45-2.82,9.17-2.18,2.68-5.27,4.36-8.76,4.36s-6.63-1.4-8.81-4.03c-2.23-2.63-3.05-6.09-3.05-9.5s.78-6.68,2.87-9.27c2.18-2.77,5.45-4.27,8.99-4.27s6.4,1.54,8.58,4.13c2.27,2.78,3,5.91,3,9.41"/>
      <path class="cls-1" d="M223.32,3.55c-.14-1.27.05-1.86-1.27-2.32-1.95-.68-5.13-1.23-7.18-1.23-8.31,0-15.76,6.27-15.76,14.68s6.58,14.9,14.86,14.9c2.99,0,5.54-.63,8.22-1.9,1.41-.68,1.37-.77,1.46-2.18l.23-3.68c.05-.31-.14-.59-.5-.59-1.23,0-1.77,7.13-8.81,7.13-3.68,0-6.49-1.95-8.58-4.81-1.91-2.64-2.82-5.68-2.82-8.91,0-6.81,3.78-13.36,11.4-13.36,7.04,0,7.41,5.82,8.58,5.82.36,0,.5-.23.5-.59l-.32-2.95Z"/>
      <path class="cls-1" d="M233.08,24.31c0,2.86.23,3.77-2.95,3.77-.41,0-1.14-.05-1.14.55,0,.5.37.59.77.59,1.72,0,3.45-.19,5.18-.19s3.36.19,5.09.19c.4,0,.77-.09.77-.59,0-.6-.77-.55-1.18-.55-3.13-.05-2.95-.86-2.95-3.77v-6.95c0-.77.86-1.36,1.37-1.86.18-.13,1-1.13,1.36-1.13s.91.82,1.09,1.05l7.09,9.05c.45.54,1.59,1.81,1.59,2.59,0,1.18-1.55,1.13-2.37,1.13-.41,0-1.27-.05-1.27.54,0,.54.54.5.96.5,1.59,0,3.23-.19,4.86-.19,1.91,0,3.73.19,5.63.19.41,0,1-.09,1-.59,0-.6-.77-.55-1.18-.55-1.09-.09-1.59-.27-2.45-1.04-1.05-.91-2.37-2.59-3.23-3.69l-8.18-10.31c-.17-.22-.86-.95-.86-1.32,0-.45.82-1.13,1.14-1.4l4.86-4.91c.99-1.04,2.59-2.41,3.91-2.99,1.08-.46,1.95-.46,3.09-.46.41,0,1.36.05,1.36-.63,0-.45-.27-.59-.68-.59-1.5,0-2.95.19-4.5.19-1.72,0-3.36-.19-5.09-.19-.36,0-.77.19-.77.64,0,.68.91.59,1.36.59.68,0,1.46.14,1.46,1,0,.77-1.72,2.4-2.22,2.95l-8.54,8.58c-.09.14-.32.36-.5.36-.32,0-.28-.54-.28-.72V5.68c0-2.86-.23-3.73,2.95-3.73.41,0,1.18,0,1.18-.59,0-.49-.37-.64-.77-.64-1.73,0-3.46.19-5.18.19s-3.36-.19-5.09-.19c-.46,0-.77.15-.77.64,0,.59.72.59,1.14.59,3.18,0,2.95.87,2.95,3.73v18.63Z"/>
      <path class="cls-1" d="M51.96,60.8c0,1.36.11,1.79-1.41,1.79-.19,0-.54-.02-.54.26,0,.23.17.28.37.28.81,0,1.64-.08,2.46-.08s1.59.08,2.42.08c.19,0,.37-.04.37-.28,0-.28-.37-.26-.57-.26-1.48-.02-1.4-.41-1.4-1.79v-3.56c0-.28-.04-.6.35-.6.17,0,.32.06.48.1l1.03.35c.35.1.5.15.9.15,2.22,0,4.18-1.64,4.18-3.95,0-1.14-.63-2.31-1.57-2.95-.87-.61-1.86-.73-2.9-.73-1.14,0-2.26.08-3.43.08-.78,0-1.5-.08-2.29-.08-.22,0-.37.06-.37.29,0,.29.35.29.54.29,1.52,0,1.39.4,1.39,1.76v8.85ZM53.66,51.85c0-1.34.07-1.86,1.56-1.86.89,0,1.79.15,2.46.75.75.65,1.12,1.66,1.12,2.63,0,1.73-1.27,3.24-3.06,3.24-.5,0-1.3-.18-1.72-.43-.45-.26-.35-.68-.35-1.15v-3.19Z"/>
      <path class="cls-1" d="M68.18,60.8c0,1.36.1,1.79-1.4,1.79-.19,0-.54-.02-.54.26,0,.23.17.27.37.27.82,0,1.64-.08,2.46-.08s1.59.08,2.41.08c.2,0,.38-.04.38-.27,0-.28-.38-.26-.56-.26-1.49-.02-1.4-.42-1.4-1.79v-3.33c0-.2-.02-.7.11-.85.1-.14.3-.11.47-.11,1.64,0,1.61.18,2.39,1.68l2.11,4.21c.18.33.3.73.73.73h2.29c.17,0,.39-.01.39-.23,0-.3-.39-.3-.56-.3-.95,0-1.27-.82-1.66-1.58l-1.75-3.37c-.31-.56-.63-1.31-1.31-1.42,1.78-.23,3.41-1.39,3.41-3.35,0-2.26-2.03-3.27-4.08-3.27-1.24,0-2.44.08-3.7.08-.69,0-1.42-.08-2.11-.08-.23,0-.39.08-.39.32,0,.26.35.26.54.26,1.5,0,1.4.4,1.4,1.79v8.82ZM69.88,51.78c0-1.5.04-1.72,1.68-1.72,1.92,0,3.1,1.08,3.1,3.06,0,.87-.28,1.66-.99,2.2-.82.63-1.71.71-2.7.71-.37,0-1.1.15-1.1-.38v-3.87Z"/>
      <path class="cls-1" d="M83.11,56.27c0,3.93,3.64,7.04,7.53,7.04,4.1,0,7.5-2.87,7.5-7.04s-3.4-7.01-7.5-7.01c-3.89,0-7.53,3.08-7.53,7.01M96.18,56.27c0,1.62-.33,3.07-1.34,4.36-1.03,1.27-2.5,2.07-4.16,2.07s-3.15-.67-4.18-1.92c-1.05-1.26-1.44-2.89-1.44-4.51s.36-3.17,1.35-4.4c1.04-1.32,2.58-2.03,4.27-2.03s3.05.73,4.08,1.97c1.08,1.31,1.43,2.81,1.43,4.46"/>
      <path class="cls-1" d="M105.67,60.8c0,1.36.11,1.79-1.41,1.79-.19,0-.53-.02-.53.26,0,.23.17.28.36.28.83,0,1.64-.08,2.46-.08s1.6.08,2.42.08c.2,0,.37-.04.37-.28,0-.28-.37-.26-.56-.26-1.49-.02-1.4-.41-1.4-1.79v-3.56c0-.28-.05-.6.34-.6.17,0,.33.06.47.1l1.04.35c.35.1.5.15.89.15,2.22,0,4.18-1.64,4.18-3.95,0-1.14-.62-2.31-1.57-2.95-.86-.61-1.86-.73-2.89-.73-1.14,0-2.26.08-3.42.08-.78,0-1.52-.08-2.29-.08-.21,0-.37.06-.37.29,0,.29.34.29.54.29,1.5,0,1.38.4,1.38,1.76v8.85ZM107.37,51.85c0-1.34.06-1.86,1.55-1.86.89,0,1.79.15,2.46.75.76.65,1.12,1.66,1.12,2.63,0,1.73-1.27,3.24-3.06,3.24-.5,0-1.3-.18-1.73-.43-.45-.26-.34-.68-.34-1.15v-3.19Z"/>
      <path class="cls-1" d="M123.59,51.31c0-.37-.06-.84.35-1,.34-.12,1.29-.12,1.64-.12.73,0,1.66,0,2.37.2.71.22,1.02.61,1.34,1.28l.32.61c.06.15.15.42.35.42.21,0,.19-.31.19-.44v-1.86c0-.28.11-.79-.3-.79-1.83,0-3.64.08-5.5.08-1.34,0-2.72-.08-4.06-.08-.2,0-.37.1-.37.32,0,.26.35.26.56.26,1.49,0,1.41.42,1.41,1.76v8.78c0,1.39.08,1.82-1.41,1.82-.22,0-.56.02-.56.26s.17.32.37.32c.21,0,.45-.01.67-.04.24-.03.45-.04.67-.04h8.43c.18,0,.22.01.23-.13l.33-2.28c.04-.18.08-.35.08-.52,0-.15-.06-.24-.22-.24-.25,0-.41.59-.47.74-.73,1.89-1.92,1.94-3.77,1.94-1.71,0-2.66-.03-2.66-2.01v-3.75c0-.74.22-.74,1.08-.74.65,0,1.78,0,2.61.19.47.11.65.75.76,1.38.02.13.08.37.28.37.11,0,.23-.05.23-.39-.02-.69-.06-1.34-.1-2.03.04-.61.09-1.25.1-1.86,0-.17-.12-.21-.23-.21-.19,0-.26.23-.28.36-.11.63-.22,1.42-.76,1.48-.84.12-1.96.09-2.61.09-.89,0-1.08,0-1.08-1.02v-3.12Z"/>
      <path class="cls-1" d="M138.06,60.8c0,1.36.11,1.79-1.4,1.79-.19,0-.54-.02-.54.26,0,.23.17.27.36.27.82,0,1.65-.08,2.47-.08s1.6.08,2.42.08c.19,0,.36-.04.36-.27,0-.28-.36-.26-.56-.26-1.49-.02-1.41-.42-1.41-1.79v-3.33c0-.2-.02-.7.11-.85.11-.14.3-.11.47-.11,1.64,0,1.62.18,2.39,1.68l2.11,4.21c.17.33.31.73.74.73h2.29c.17,0,.38-.01.38-.23,0-.3-.38-.3-.56-.3-.95,0-1.27-.82-1.67-1.58l-1.74-3.37c-.31-.56-.63-1.31-1.32-1.42,1.79-.23,3.41-1.39,3.41-3.35,0-2.26-2.03-3.27-4.08-3.27-1.24,0-2.44.08-3.69.08-.69,0-1.43-.08-2.11-.08-.25,0-.39.08-.39.32,0,.26.34.26.54.26,1.51,0,1.4.4,1.4,1.79v8.82ZM139.77,51.78c0-1.5.05-1.72,1.69-1.72,1.91,0,3.1,1.08,3.1,3.06,0,.87-.28,1.66-.99,2.2-.82.63-1.71.71-2.7.71-.36,0-1.1.15-1.1-.38v-3.87Z"/>
      <path class="cls-1" d="M159.7,51.25c0-1.1,0-1.05.98-1.05h1.25c.67,0,1.28,0,1.75.55.32.41.47,1.02.62,1.47.05.13.08.3.23.3.24,0,.26-.2.26-.37l.13-2.63c0-.16.11-.77-.19-.77-.21,0-.26.19-.33.37-.22.59-.75.5-1.31.5h-7.83c-.34,0-.8.06-1.08-.18-.17-.13-.15-.26-.17-.45,0-.13-.07-.24-.2-.24-.19,0-.23.15-.27.3l-.85,2.8c-.04.1-.12.37-.12.51,0,.16.07.26.22.26.21,0,.38-.36.47-.51,1.03-1.72,1.83-1.91,3.79-1.91.67,0,.95-.16.95.62v9.99c0,1.36.11,1.79-1.4,1.79-.19,0-.54-.02-.54.26,0,.23.18.28.37.28.81,0,1.63-.08,2.45-.08s1.6.08,2.42.08c.19,0,.37-.04.37-.28,0-.28-.37-.26-.56-.26-1.49,0-1.41-.41-1.41-1.79v-9.56Z"/>
      <path class="cls-1" d="M171.67,60.8c0,1.36.11,1.79-1.4,1.79-.19,0-.54-.02-.54.26,0,.23.17.28.36.28.82,0,1.65-.08,2.46-.08s1.6.08,2.42.08c.2,0,.36-.04.36-.28,0-.28-.36-.26-.56-.26-1.48-.02-1.4-.42-1.4-1.79v-8.85c0-1.36-.1-1.76,1.4-1.76.2,0,.56,0,.56-.29,0-.23-.17-.29-.36-.29-.82,0-1.65.08-2.46.08s-1.6-.08-2.42-.08c-.22,0-.36.06-.36.29,0,.29.35.29.54.29,1.51,0,1.4.4,1.4,1.76v8.85Z"/>
      <path class="cls-1" d="M184.38,51.31c0-.37-.06-.84.34-1,.35-.12,1.29-.12,1.64-.12.74,0,1.67,0,2.37.2.72.22,1.02.61,1.34,1.28l.32.61c.07.15.15.42.34.42.22,0,.2-.31.2-.44v-1.86c0-.28.1-.79-.31-.79-1.83,0-3.65.08-5.5.08-1.34,0-2.72-.08-4.06-.08-.19,0-.37.1-.37.32,0,.26.35.26.56.26,1.49,0,1.41.42,1.41,1.76v8.78c0,1.39.08,1.82-1.41,1.82-.21,0-.56.02-.56.26s.18.32.37.32c.22,0,.46-.01.67-.04.24-.03.45-.04.67-.04h8.43c.17,0,.21.01.24-.13l.32-2.28c.05-.18.08-.35.08-.52,0-.15-.06-.24-.21-.24-.26,0-.41.59-.48.74-.73,1.89-1.91,1.94-3.78,1.94-1.7,0-2.65-.03-2.65-2.01v-3.75c0-.74.22-.74,1.08-.74.64,0,1.77,0,2.61.19.47.11.65.75.76,1.38.02.13.08.37.28.37.11,0,.24-.05.24-.39-.02-.69-.07-1.34-.11-2.03.05-.61.09-1.25.11-1.86,0-.17-.13-.21-.24-.21-.2,0-.26.23-.28.36-.1.63-.22,1.42-.76,1.48-.84.12-1.96.09-2.61.09-.89,0-1.08,0-1.08-1.02v-3.12Z"/>
      <path class="cls-1" d="M201.74,56.87c1.47.64,2.63,1.49,2.63,3.22s-1.6,2.8-3.22,2.8c-1.96,0-2.96-1.17-3.17-3.02-.02-.18-.02-.71-.31-.71-.23,0-.3.26-.32.43-.07.56-.07,1.1-.07,1.66,0,.38-.06.97.31,1.21.9.54,2.2.85,3.25.85,1.25,0,2.48-.33,3.46-1.13.92-.77,1.51-1.85,1.51-3.05,0-.94-.41-1.88-1.03-2.58-.52-.55-1.43-1.02-2.13-1.34-1.41-.59-3.78-1.35-3.78-3.21,0-1.57,1.36-2.31,2.79-2.31,1.68,0,2.32.8,2.8,2.29.07.15.11.49.35.49.15,0,.23-.1.23-.25-.02-.57-.06-1.12-.09-1.69-.02-.39.03-.65-.38-.8-.8-.33-2.05-.48-2.9-.48-2.11,0-4.16,1.38-4.16,3.65,0,1.91,1.55,2.8,3.12,3.49l1.1.48Z"/>
      <rect class="cls-2" x="1.01" y="38.35" width="257.87" height="1.11"/>
    </g>
  </g>
</svg>