<?xml version="1.0" encoding="UTF-8"?>
<svg id="_圖層_2" data-name="圖層 2" xmlns="http://www.w3.org/2000/svg" viewBox="0 0 392 69.32">
  <defs>
    <style>
      .cls-1, .cls-2 {
        fill: #231f20;
      }

      .cls-2 {
        fill-rule: evenodd;
      }

      .cls-3 {
        fill: #0072b4;
      }
    </style>
  </defs>
  <g id="Layer_1" data-name="Layer 1">
    <path class="cls-3" d="M62.12,0c-2.63,0-4.77,2.16-4.77,4.8v52.58c0,1.32-1.07,2.4-2.38,2.4s-2.42-1.05-2.42-2.34V4.8c0-2.69-2.11-4.8-4.8-4.8s-4.74,2.16-4.74,4.8v52.64c0,1.29-1.09,2.34-2.42,2.34-.63,0-1.22-.26-1.66-.72-.46-.49-.7-1.18-.7-1.95v-6.57s.01-38.58.01-38.58c0-6.59-5.36-11.97-11.94-11.97-2.54,0-4.98.85-7.08,2.47-2.14-1.62-4.64-2.47-7.26-2.47C5.24,0,0,5.38,0,12.24v52.3c0,2.63,2.15,4.78,4.79,4.78s4.74-2.14,4.74-4.78l.04-52.58c0-1.36,1.04-2.42,2.37-2.42s2.38,1.08,2.38,2.41v15.48c0,2.62,2.16,4.75,4.8,4.75s4.77-2.13,4.77-4.75v-15.48c.01-1.35,1.06-2.41,2.39-2.41s2.42,1.13,2.42,2.69v6.09l-.04.49v11.02c-.07,1.56-.98,2.97-2.38,3.7-.15.08-.24.24-.24.41,0,.18.09.34.24.41,1.35.74,2.24,2.05,2.38,3.47v19.56c0,6.58,5.34,11.93,11.91,11.93,2.63,0,5.02-.82,7.13-2.45,2.08,1.61,4.58,2.45,7.26,2.45,6.69,0,11.94-5.36,11.94-12.2V4.8c0-2.65-2.15-4.8-4.8-4.8"/>
    <path class="cls-3" d="M20.13,36.3c-2.62,0-4.76,2.14-4.76,4.77v23.47c0,2.63,2.13,4.78,4.76,4.78s4.78-2.14,4.78-4.78v-23.47c0-2.63-2.14-4.77-4.78-4.77"/>
    <path class="cls-1" d="M97.39,59.03l6.98-6.25c.3-.29.6-.63.6-1.39,0-.85-.6-1.43-1.48-1.43-.62,0-1.1.4-1.52.81l-6.84,6.24v-5.4c0-.97-.66-1.64-1.59-1.64s-1.63.67-1.63,1.64v15.86c0,1,.65,1.67,1.63,1.67s1.59-.67,1.59-1.67v-6.31l7.51,7.37c.53.51.93.61,1.43.61.86,0,1.56-.66,1.56-1.47,0-.49-.17-.87-.6-1.27l-7.63-7.36Z"/>
    <path class="cls-1" d="M108.7,65.56c-.99,0-1.79.8-1.79,1.8s.8,1.78,1.79,1.78,1.8-.82,1.8-1.78-.82-1.8-1.8-1.8"/>
    <path class="cls-1" d="M135.06,51.43c0-.86-.64-1.48-1.51-1.48-.97,0-1.54.48-1.69,1.44l-2,12.21-3.55-12.42c-.21-.82-.75-1.23-1.6-1.23-.52,0-1.27.12-1.62,1.22l-3.53,12.41-2.02-12.19c-.14-.96-.72-1.44-1.68-1.44-.87,0-1.51.63-1.51,1.48,0,.31.03.69.13,1.22l2.73,14.62c.22,1.23.91,1.85,2.07,1.85,1.01,0,1.77-.31,2.21-1.8l3.23-11.52,3.22,11.52c.42,1.49,1.19,1.8,2.21,1.8,1.16,0,1.85-.62,2.07-1.85l2.73-14.6c.09-.46.13-.85.13-1.25"/>
    <path class="cls-1" d="M147.1,51.6c-.15-.41-.65-1.64-2.05-1.64-.94,0-1.65.55-2.07,1.65l-5.55,14.86-.07.21c-.15.41-.26.75-.26,1.03,0,.83.67,1.43,1.58,1.43.72,0,1.23-.39,1.53-1.16l1.04-2.89h7.6l1.04,2.89c.36.95,1.03,1.16,1.54,1.16.91,0,1.57-.6,1.57-1.43,0-.32-.16-.78-.33-1.27l-5.55-14.84ZM142.28,62.19l2.76-7.75,2.75,7.75h-5.51Z"/>
    <path class="cls-1" d="M169.75,49.96c-.98,0-1.61.7-1.61,1.8v6.3h-8.44v-6.3c0-1.12-.61-1.8-1.58-1.8s-1.62.7-1.62,1.8v15.57c0,1.1.64,1.81,1.62,1.81s1.58-.69,1.58-1.81v-6.33h8.44v6.33c0,1.1.63,1.81,1.61,1.81s1.6-.72,1.6-1.81v-15.57c0-1.1-.63-1.8-1.6-1.8"/>
    <path class="cls-1" d="M193.58,49.96c-.94,0-1.6.67-1.6,1.65v15.86c0,1,.64,1.68,1.6,1.68s1.61-.67,1.61-1.68v-15.86c0-.99-.64-1.65-1.61-1.65"/>
    <path class="cls-1" d="M213.64,49.96c-.96,0-1.62.67-1.62,1.65v11.41l-8.18-11.71c-.64-.92-1.05-1.35-1.96-1.35-.69,0-1.52.31-1.52,1.79v15.71c0,1,.65,1.68,1.6,1.68s1.62-.67,1.62-1.68v-11.44l8.18,11.73c.57.84,1.01,1.39,1.98,1.39.69,0,1.51-.32,1.51-1.8v-15.74c0-.98-.66-1.65-1.62-1.65"/>
    <path class="cls-1" d="M229.5,50.09h-8.89c-.97,0-1.59.6-1.59,1.52s.61,1.54,1.59,1.54h2.83v14.31c0,1,.64,1.68,1.6,1.68s1.61-.67,1.61-1.68v-14.31h2.85c.97,0,1.6-.6,1.6-1.54s-.62-1.52-1.6-1.52"/>
    <path class="cls-1" d="M242.73,53.15c.96,0,1.58-.6,1.58-1.54s-.64-1.52-1.58-1.52h-6.35c-1.03,0-1.69.67-1.69,1.7v15.47c0,1.05.66,1.73,1.69,1.73h6.35c.96,0,1.58-.6,1.58-1.53s-.62-1.55-1.58-1.55h-4.83v-4.86h4.36c.98,0,1.59-.58,1.59-1.51s-.59-1.51-1.59-1.51h-4.36v-4.89h4.83Z"/>
    <path class="cls-1" d="M255.33,61c3.31-.2,5.21-2.23,5.21-5.58s-3.04-5.34-5.98-5.34h-4.12c-1.02,0-1.68.67-1.68,1.71v15.67c0,1,.65,1.68,1.62,1.68s1.61-.67,1.61-1.68v-5.52l5.96,6.55c.26.27.69.65,1.37.65.85,0,1.52-.59,1.52-1.35,0-.5-.17-.91-.56-1.36l-4.96-5.43ZM252,58.37v-5.37h2.46c1.88,0,2.86,1.28,2.86,2.55,0,2.03-.79,2.81-2.82,2.81h-2.51Z"/>
    <path class="cls-1" d="M278.19,49.96c-.96,0-1.62.67-1.62,1.65v11.44l-8.18-11.73c-.62-.93-1.08-1.36-1.97-1.36-.69,0-1.51.31-1.51,1.79v15.71c0,1,.65,1.68,1.62,1.68s1.6-.67,1.6-1.68v-11.46l8.19,11.75c.64.95,1.08,1.39,1.97,1.39.69,0,1.52-.32,1.52-1.8v-15.74c0-.98-.66-1.65-1.61-1.65"/>
    <path class="cls-1" d="M299.17,66.44l-5.57-14.82c-.4-1.11-1.09-1.66-2.04-1.66s-1.67.56-2.06,1.65l-5.61,14.92c-.15.43-.3.87-.3,1.18,0,.83.66,1.43,1.56,1.43.51,0,1.2-.21,1.56-1.16l1.04-2.89h7.58l1.04,2.89c.35.95,1.04,1.16,1.56,1.16.9,0,1.56-.6,1.56-1.43,0-.27-.11-.63-.25-1.03l-.08-.24ZM288.8,62.19l2.75-7.76,2.78,7.76h-5.52Z"/>
    <path class="cls-1" d="M310.51,50.09h-8.9c-.97,0-1.59.6-1.59,1.52s.63,1.54,1.59,1.54h2.84v14.31c0,1,.64,1.68,1.6,1.68s1.61-.67,1.61-1.68v-14.31h2.85c.96,0,1.58-.6,1.58-1.54s-.63-1.52-1.58-1.52"/>
    <path class="cls-1" d="M317.14,49.96c-.97,0-1.63.66-1.63,1.65v15.86c0,1,.66,1.68,1.63,1.68s1.6-.67,1.6-1.68v-15.86c0-.98-.66-1.65-1.6-1.65"/>
    <path class="cls-1" d="M331.4,49.96c-5.48,0-8.34,4.82-8.34,9.6s2.86,9.59,8.34,9.59,8.36-4.82,8.36-9.59-2.87-9.6-8.36-9.6M331.4,66.22c-3.66,0-4.97-3.44-4.97-6.67s1.31-6.72,4.97-6.72,5,3.47,5,6.72-1.31,6.67-5,6.67"/>
    <path class="cls-1" d="M357.36,49.96c-.95,0-1.61.67-1.61,1.65v11.47l-8.19-11.76c-.57-.85-.99-1.36-1.97-1.36-.68,0-1.5.31-1.5,1.79v15.71c0,1,.65,1.68,1.62,1.68s1.58-.67,1.58-1.68v-11.46l8.19,11.76c.57.83,1.01,1.38,1.98,1.38.69,0,1.51-.32,1.51-1.8v-15.74c0-.98-.66-1.65-1.61-1.65"/>
    <path class="cls-1" d="M372.78,51.61c-.4-1.1-1.09-1.65-2.04-1.65s-1.66.56-2.07,1.65l-5.56,14.87-.08.23c-.14.4-.25.73-.25,1,0,.83.66,1.43,1.57,1.43.52,0,1.2-.21,1.54-1.16l1.05-2.89h7.6l1.04,2.89c.11.29.43,1.16,1.55,1.16.89,0,1.54-.6,1.54-1.43,0-.31-.15-.75-.34-1.27l-5.55-14.83ZM367.97,62.19l2.76-7.77,2.74,7.77h-5.5Z"/>
    <path class="cls-1" d="M390.42,65.91h-4.24v-14.31c0-.99-.64-1.65-1.61-1.65s-1.61.67-1.61,1.65v15.65c0,1.05.65,1.73,1.68,1.73h5.77c.96,0,1.58-.6,1.58-1.53s-.62-1.55-1.58-1.55"/>
    <path class="cls-2" d="M117.5,7.9h18.13c1.06,0,1.92-.64,1.92-1.75s-.86-1.71-1.92-1.71h-18.13c0-1.61.37-3.68-1.92-3.68s-1.94,2.07-1.94,3.68h-18.77c-1.06,0-1.9.65-1.9,1.75s.85,1.71,1.9,1.71h18.77v2.66h-16.91c-1,0-1.91.6-1.91,1.72s.91,1.72,1.91,1.72h36.97c1,0,1.88-.66,1.88-1.72s-.87-1.72-1.88-1.72h-16.21v-2.66ZM136.22,42.35v-5.27c0-3.19-.82-3.76-3.95-3.76h-10.08c-3.22,0-4.11.54-4.11,3.87v5.24c0,3.12,1.06,3.58,4,3.58h10.19c2.97,0,3.95-.62,3.95-3.67M132.69,41.51c0,.79-.24,1.01-1.06,1.01h-8.94c-.78,0-1.14-.18-1.14-1.01v-3.83c0-.85.26-1,1.04-1h9.05c.81,0,1.06.18,1.06,1v3.83ZM106.48,31.38h30.01c1.07,0,1.93-.73,1.93-1.83,0-1.04-.86-1.76-1.93-1.76h-11.64l1.1-2.73h3.68c2.82,0,3.91-.74,3.91-3.63,0-3.83.41-5.63-4.02-5.63h-28.53c-2.96,0-4,.56-4,3.65v2.07c0,3.01,1.29,3.54,4.1,3.54h2.62l1.35,2.73h-11.25c-1.05,0-1.91.72-1.91,1.83,0,1.03.86,1.77,1.91,1.77h9.14c-.09.66-.2,1.37-.35,2.1h-7.69c-1.04,0-1.79.75-1.79,1.78s.75,1.77,1.79,1.77h6.55c-1.76,3.62-4.13,4.98-7.69,6.5-.8.33-1.4.89-1.4,1.78,0,1.07.78,1.82,1.84,1.82.31,0,.66-.11.97-.22,4.76-1.83,8.34-5.01,10.1-9.89h6.08c.77,0,1.25.1,1.25.99,0,1.18-.05,2.63-.41,3.76-.31.98-.77,1.31-1.81,1.48h-.3c-1.67,0-3.68-1.03-4.69-1.03-.95,0-1.6.79-1.6,1.68s.57,1.39,1.3,1.72c1.53.57,3.39,1.02,5.04,1.02,5.48,0,5.83-4.73,5.83-8.98,0-3.07-.82-4.21-4.02-4.21h-5.78c.2-.72.24-1.44.31-2.1M130.24,20.52c0,.68-.33.85-.97.85h-27.8c-.66,0-.96-.18-.96-.85v-.31c0-.76.15-.99.96-.99h27.8c.83,0,.97.23.97.99v.31ZM122.15,25.06l-1.22,2.73h-11.88l-1.35-2.73h14.45Z"/>
    <path class="cls-2" d="M189.99,27.78c.99,0,1.6-.87,1.6-1.86v-2.82h4.55c1,0,1.87-.64,1.87-1.68s-.87-1.63-1.87-1.63h-4.55v-3.16c0-1.01-.63-1.75-1.64-1.75s-1.67.74-1.67,1.75v3.16h-8.07c-1.01,0-1.75.67-1.75,1.67s.74,1.64,1.75,1.64h8.07v2.82c0,1,.66,1.86,1.71,1.86M214.2,27.78c1,0,1.58-.87,1.58-1.86v-2.84h7.96c.99,0,1.87-.66,1.87-1.71s-.87-1.63-1.87-1.63h-7.96v-3.01c0-.99-.63-1.75-1.63-1.75s-1.66.76-1.66,1.75v3.01h-5.68c-.99,0-1.74.68-1.74,1.68s.75,1.65,1.74,1.65h5.68v2.84c0,1,.65,1.86,1.71,1.86M200.03,39.04v5.53c0,1.08.72,1.86,1.83,1.86,1.03,0,1.7-.78,1.7-1.86v-5.53h19.06c1.03,0,1.87-.7,1.87-1.76s-.84-1.65-1.87-1.65h-19.06v-3.9h20.09c.99,0,1.84-.72,1.84-1.77s-.85-1.65-1.84-1.65h-20.09v-13.65h18.65c1.02,0,1.83-.66,1.83-1.77,0-1.05-.81-1.72-1.83-1.72h-8.68c.77-.6.52-2.39.52-3.26h9.55c1.01,0,1.88-.64,1.88-1.7s-.87-1.6-1.88-1.6h-9.55V1.97c0-1-.76-1.74-1.74-1.74s-1.76.73-1.76,1.74v2.62h-5.79c-1,0-1.76.64-1.76,1.67s.76,1.63,1.76,1.63h5.79c0,.87-.31,2.66.59,3.26h-18.18c.86-.63.62-2.27.62-3.22h5.07c1.01,0,1.86-.64,1.86-1.68s-.85-1.61-1.86-1.61h-5.07v-2.61c0-1-.75-1.79-1.76-1.79s-1.74.79-1.74,1.79v2.61h-9.44c-1.03,0-1.77.64-1.77,1.65s.75,1.64,1.77,1.64h9.44c0,.82-.33,2.78.63,3.22h-8.62c-1.03,0-1.78.75-1.78,1.76s.76,1.74,1.78,1.74h17.95v13.65h-19.62c-1,0-1.75.68-1.75,1.71s.75,1.72,1.75,1.72h19.62v3.9h-18.02c-1,0-1.75.69-1.75,1.71s.74,1.7,1.75,1.7h18.02Z"/>
    <path class="cls-2" d="M307.82,41.04V7.06c0-2.73-1.76-4.52-4.47-4.52h-33.15c-2.75,0-4.56,1.68-4.56,4.47v34.09c0,2.68,1.9,4.55,4.56,4.55h33.15c2.66,0,4.47-1.98,4.47-4.6M300.88,10.06c-1.2-1.29-2.47-2.62-3.67-3.91h5.52c.96,0,1.46.51,1.46,1.44v2.89c-.84-.6-2.32-.42-3.31-.42M292.55,6.3c1.2,1.25,2.41,2.51,3.56,3.75h-3.32c-.1-1.25-.14-2.51-.24-3.75M289.15,10.06h-18.63c-.47,0-.87.11-1.28.31v-2.71c0-1,.6-1.51,1.56-1.51h18.08c.09,1.28.15,2.62.27,3.91M296.76,30.25c2.32-4,4.17-8.39,5.43-12.89.05-.16.1-.36.1-.63,0-1-.81-1.75-1.81-1.75s-1.57.64-1.85,1.49c-1.07,3.2-1.92,6.08-3.36,9.15-1.17-3.94-1.72-7.94-2.16-11.95h9.74c.5,0,.95-.09,1.34-.41v27.03c0,.9-.45,1.71-1.46,1.71h-14.9c2.3-2.56,4.56-5.17,6.52-8,.95,2.25,2.71,6.81,5.69,6.81,3.59,0,3.56-6.59,3.56-9.05,0-1.26,0-2.83-1.73-2.83-1.14,0-1.74.93-1.74,1.97,0,1.47.1,3.18-.08,4.6-.06.28-.13.59-.41.59-.26,0-.4-.23-.5-.39-.9-1.69-1.72-3.7-2.37-5.44M289.23,34.77c-1.55,1.83-3.2,3.52-4.82,5.31-.35.41-.6.84-.6,1.36,0,.22.04.37.09.57h-13.16c-.94,0-1.5-.6-1.5-1.56V13.38c.41.22.81.31,1.28.31h18.97c.6,5.53,1.55,10.98,3.31,16.26-.39.67-.8,1.27-1.24,1.86-.31-.59-.91-.91-1.57-.91-.26,0-.45.05-.72.1-3.56.89-7.17,1.86-10.75,2.74-2.35.62-4.77,1.18-7.1,1.83-.9.25-1.67.8-1.67,1.79,0,1.08.85,1.8,1.85,1.8.27,0,.45-.08.65-.13,5.69-1.32,11.36-2.71,16.98-4.27M287.93,25.97v-5.88c0-2.64-1.66-4.4-4.37-4.4h-7.83c-2.67,0-4.47,1.64-4.47,4.37v5.96c0,2.61,1.87,4.46,4.47,4.46h7.83c2.61,0,4.37-1.88,4.37-4.51M284.32,25.43c0,.86-.5,1.39-1.37,1.39h-6.67c-.87,0-1.42-.56-1.42-1.42v-4.69c0-.9.61-1.39,1.46-1.39h6.62c.86,0,1.37.49,1.37,1.36v4.76Z"/>
    <path class="cls-2" d="M391.39,24.04c-2.41-2.61-4.77-5.33-6.72-8.3,1.65-1.84,5.86-7.1,5.86-9.55,0-1.79-1.3-2.86-3.07-2.86h-5.92c-.95,0-1.77.54-1.77,1.57s.87,1.62,1.82,1.62h4.73c.24,0,.49.08.49.39,0,.88-3.2,5.11-3.93,5.98-1-1.86-1.89-3.8-2.65-5.73-.32-.85-.6-1.71-.91-2.5-.3-.72-.74-1.2-1.55-1.2-.91,0-1.67.74-1.67,1.63,0,.24,0,.49.12.7,2.76,8.08,6.58,14.3,12.5,20.47.41.39.86.63,1.41.63.91,0,1.76-.7,1.76-1.59,0-.49-.26-.92-.54-1.25h.04ZM370.98,23.87l11.47-.05c.9,0,1.71-.61,1.71-1.52,0-.98-.8-1.6-1.71-1.6h-11.56c-.3,0-.64.04-.89.26,3.25-3.97,5.11-8.81,5.62-13.88v-.49c0-2.01-1.27-3.57-3.33-3.57h-5.31c-1.77,0-3.06.84-3.78,2.46-1.35,3.2-2.35,5.53-4.16,8.53-.21.36-.35.7-.35,1.1,0,.98.89,1.76,1.92,1.76.79,0,1.3-.52,1.68-1.18,1.31,1.41,2.61,2.79,3.87,4.23-1.26,1.27-2.66,2.38-4.16,3.35-.51.36-.91.8-.91,1.44,0,.92.85,1.71,1.81,1.71,1.55,0,5.38-3.61,6.49-4.83-.11.22-.11.41-.11.62,0,1,.75,1.65,1.69,1.65M372.06,7c0,1.05-.5,2.92-.81,3.97-1.7-1.05-3.46-2.06-5.17-3.08.36-.96.5-1.7,1.72-1.7h3.31c.55,0,.96.21.96.81M370.05,14.13c-.5,1.04-1.06,2.11-1.71,3.11-1.41-1.49-2.85-3-4.33-4.47.31-.61.58-1.16.86-1.75,1.72,1,3.47,2,5.18,3.11M391.79,43.85c0-.41-.16-.77-.36-1.1-1.84-3.04-4.4-6.53-6.76-9.17-.41-.46-.86-.79-1.47-.79-1,0-1.86.85-1.86,1.87,0,.44.15.83.46,1.19,1.05,1.35,2.16,2.68,3.16,4.09,1.14,1.57,2.21,3.22,3.37,4.77.4.55.9.92,1.6.92.96,0,1.86-.75,1.86-1.79M377.39,31h12.85c.95,0,1.77-.52,1.77-1.57s-.82-1.53-1.77-1.53h-27.93c-.59,0-1.25.24-1.53.78,0-3.39-1.62-6.51-3.43-9.28-.2-.31-.31-.59-.31-.95,0-.26.04-.49.11-.72l3.06-10.48c.09-.46.21-.85.21-1.31,0-2.12-1.42-3.47-3.52-3.47h-5.09c-2.36,0-3.95,1.57-3.95,3.93v39c0,1.02.63,1.84,1.7,1.84,1,0,1.65-.82,1.65-1.84V6.84c0-.69.28-1.05,1.01-1.05h3.72c.39,0,.71.11.71.54,0,.19,0,.28-.06.44l-2.91,10.18c-.15.42-.19.95-.19,1.41,0,.8.24,1.49.69,2.22,1.25,1.99,3.07,5.07,3.07,7.52,0,1.8-.76,2.56-2.62,2.56-.46,0-.9-.03-1.35-.03-1.07,0-1.8.69-1.8,1.75,0,1.71,1.57,1.89,2.91,1.89,2.95,0,5.61-1.29,6.23-4.47.18.83.93,1.22,1.74,1.22h11.46v11.24c0,.59-.12,1.17-.81,1.17-1.37,0-4.03-.98-5.31-1.38-.2-.03-.47-.1-.68-.1-.95,0-1.65.82-1.65,1.72,0,.85.55,1.41,1.35,1.71,1.76.58,4.62,1.4,6.49,1.4,2.26,0,4.16-1.31,4.16-3.71v-12.05ZM368.99,35.62c.25-.29.42-.7.42-1.12,0-.86-.82-1.61-1.7-1.61-.62,0-1.02.32-1.41.75-1.32,1.57-2.56,3.19-4.1,4.58-1.54,1.49-3.3,2.76-5.01,4.12-.45.35-.8.82-.8,1.42,0,.9.8,1.63,1.71,1.63.38,0,.69-.13,1.05-.34,3.76-2.48,7.14-5.89,9.88-9.43h-.05Z"/>
  </g>
</svg>