<?xml version="1.0" encoding="UTF-8"?>
<svg id="_圖層_2" data-name="圖層 2" xmlns="http://www.w3.org/2000/svg" viewBox="0 0 315.92 67.27">
  <defs>
    <style>
      .cls-1 {
        fill: #231f20;
      }

      .cls-2 {
        fill: #ec1c24;
      }
    </style>
  </defs>
  <g id="Layer_1" data-name="Layer 1">
    <path class="cls-2" d="M43.67,54.54l4.13-3.31v-14.85l-2.79-2.65,2.79-2.65v-14.85l-4.13-3.32h-21.43v41.6s.05.03.08.04h21.36ZM31.02,21.66h7.99v7.3h-7.99v-7.3ZM31.02,45.79v-7.42h7.99v7.42h-7.99Z"/>
    <path class="cls-2" d="M65.24,32c1.07,0,2-.92,2-1.99V2.17c0-1.2-.93-2.13-2-2.13H2.13C.94.04,0,.97,0,2.17v63.12c0,1.19.94,1.98,2,1.98h63.24c1.07,0,2-.79,2-1.98v-27.86c0-1.19-.93-1.99-2-1.99-1.19,0-2.13.8-2.13,1.99-1.72,14.19-13.83,25.2-28.62,25.2-15.97,0-28.89-13.01-28.89-28.91S18.51,4.82,34.48,4.82c14.79,0,26.9,11,28.62,25.19,0,1.07.94,1.99,2.13,1.99"/>
    <path class="cls-2" d="M34.48,6.8c-14.78,0-26.89,12.07-26.89,26.93s12.11,26.91,26.89,26.91,26.9-12.07,26.9-26.91S49.39,6.8,34.48,6.8M34.48,57.86c-4.44,0-8.6-1.22-12.17-3.32h-.08v-.04c-7.09-4.19-11.85-11.9-11.85-20.77,0-13.4,10.79-24.27,24.09-24.27s24.23,10.87,24.23,24.27-10.77,24.13-24.23,24.13"/>
    <path class="cls-1" d="M114.96,2.08c.95,1.08,0,3.12,1.36,3.93,3.39.55,6.67,1.23,10.07,1.91,1.9-.27,3.26.82,5.16.82,1.77.13,2.99-.41,4.63-.41,1.22-.27,2.45-1.63,3.8-.54.69.95.69,2.44.42,3.53-1.24,2.58-4.09,2.58-5.59,4.9-.82,1.08-1.08,2.44-1.62,3.66,0,.68-.14,1.77.27,2.31.81,1.08,2.18,2.05,1.9,3.4-.4.81-1.22,1.49-2.03,1.77-1.5.13-2.99-.69-4.63-.41-1.76-.41-3.94.13-5.71-.28-.95.41-1.76-.27-2.72-.14-1.38-.81-2.86-1.5-3.68-2.99.26-1.64,2.3-2.04,3.8-2.44,2.18-.95,4.08,1.08,6.39.26.82-.13,1.9,0,2.32-1.09l.4-2.31c.55-.82,1.92-1.5,1.1-2.58-1.22-1.77-3.4-.82-5.17-1.23-1.9-.41-3.95-.41-5.85-1.08-1.5-.27-2.45.68-3.81,1.22-1.23,1.1-.82,3-1.09,4.5,0,1.36-.28,2.98.27,4.21-.14,1.77-.14,3.53.13,5.17.42,3.53-.54,6.26-.13,9.66.4,1.49.55,3.12-.27,4.35-.54.41-.81,1.09-1.49.95-.68,0-1.36-.14-1.76-.82-.69-.81-.41-2.04-.69-2.99,0-1.9-.27-3.67-.41-5.43-.55-.42.14-1.37-.67-1.77-.15-.56-.15-1.37.67-1.63.68-.14.54-.95.54-1.64-.13-2.03.28-4.07.41-6.12.15-2.57.26-5.31.15-7.89-.95-1.36-2.87-.95-4.37-1.22-1.62.13-2.85.95-4.62.95-1.49-.14-2.32,1.49-3,2.58-.95.96-.4,2.45-.4,3.67.13.41.4.81.82.95,1.49.41,2.72-.27,3.93-.67l.28-.28c1.62,0,3.13,0,4.35.95.82.82.68,2.05.55,3.01-.41.95-1.36,1.49-2.18,1.89-1.23-.14-2.31.41-3.27.82-1.49.27-3.12.41-4.48.81-1.23,0-1.9-2.04-3.27-1.08-.81.94-1.08,1.89-2.04,2.71-.26.13-.95.13-1.23,0-1.35-1.77-2.03-4.34-.94-6.39.94-1.49,1.21-3.67.54-5.43-1.1-2.32-4.08-3.4-4.63-5.99,0-1.09-.4-2.31.56-3.12,1.49-1.09,3.81-.68,5.71-1.09,2.04-.41,3.94-1.36,6.13-.81,1.77.13,3.39.95,5.3.41,1.21,0,2.44,0,3.53-.68.54-.14,1.23-.27,1.49-.95-.68-1.1.28-2.18.28-3.27.54-.82,1.21-1.09,2.15-1.36.83,0,1.78.13,2.33.81"/>
    <path class="cls-1" d="M195.87,7.24c-.4-.81-1.22-1.08-2.03-1.23-2.44-.12-4.9,0-7.21-.4-1.22-.55-2.58-.41-3.67-1.09h-.27c-2.58-.41-5.17-.81-7.9-.68h-.26c-.82.15-1.64-.41-2.45-.13-1.63.13-3.4.13-5.04.13-2.16.15-4.35.15-6.66,0-.28.15-.55.15-.82.15-.69-.15-1.23-.27-1.91,0-1.08.8-2.45.54-3.67.54-1.9.95-4.48.26-6.52.68-.56.41-1.78,0-1.78.96-.68.81-.14,2.03-.27,2.99.41.68.41,1.36.41,2.18.95,2.85,3.26,5.17,3.26,8.43.69,2.99-.95,5.04-1.62,7.49-.14,2.03-1.37,3.52-1.1,5.71.54,2.03.81,4.35,2.72,5.58.95.13,1.91,0,2.72-.29l2.18.97,2.59-.14c.95-.41,1.9-.54,2.99-.69,2.44-.4,5.03-.54,7.48-1.08h.14c2.45-.27,4.9.13,7.35.28,1.49.26,3.12.26,4.88.26,1.09.13,2.19.39,3.28.54h.14c2.44.15,4.88.56,7.2,1.23.95.27,2.17,1.09,2.99.14v-3.27c-1.77-5.3-.41-11.28-.95-16.86-.13-2.45.55-4.63,1.23-6.66,1.08-1.77,3.26-3.13,2.57-5.72M182.54,16.49h.15c.27.28.67.41.67.68-.13.41-.41.82-.67,1.09-.69.68-1.64,1.23-2.46,1.77-.67.54-1.49,1.76-2.58,1.49-1.22-.54-1.91-2.03-2.98-2.85q-.14,0-.14-.13c-.41-.41-.82-.82-.55-1.5.14-.14.42-.27.55-.41.54-.4,1.21-.67,1.9-.95,2.31-.14,4.07.41,6.11.81M179.15,27.51c-1.23.67-2.72,0-3.94.54h-.68c-1.64-.13-3.39,0-4.63-.81-.26-.15-.13-.56-.13-.82,1.22-.96,3-.96,4.36-1.63h.41c1.62.13,3.94-.69,4.48,1.08.14.54.28,1.08.14,1.63M167.04,9.01c2.32-.95,5.04-.27,7.49.28.26,0,.54.13.81.13,1.23.41.41,1.63.69,2.59l-.69.54h-7.34c-.27-.27-.67-.67-.95-1.09-.53-.54-.82-1.36-.82-2.17.28-.14.56-.28.82-.28M164.72,18.13c.55-.69,1.5-.82,2.32-.69.28,0,.55.14.68.14,1.09.41,1.91,1.09,2.73,1.77.27.54.27,1.36,0,1.77-.82,1.08-2.18.4-3.41.4h-.53c-1.1-.4-2.6.95-3.01-.54.13-1.09.69-2.05,1.22-2.85M166.08,24.52c-.4,1.23-1.09,2.86-2.58,3.27-.82.13-1.76,0-2.31.54-.55,0-1.09,0-1.63.13-1.64.13-3.13.82-4.9.68-.54,0-.95-.13-1.36-.55-.27-.41-.4-.95-.14-1.49.69-1.49,2.33-1.36,3.54-1.9.95-.28,1.91-.41,2.86-.55,1.63-.14,3.26-.14,4.63-.54.69,0,1.49-.27,1.9.41M152.76,11.59c1.91-1.08,4.36-1.49,6.81-1.49.41,0,.95.13,1.36.13.82.14,1.5.81,2.04,1.49.41.95-.54,1.64-1.22,2.31-.55.41-1.5.27-2.18.41-.26.14-.41.14-.69.27-1.35.13-2.44.54-3.67.82-.95-.82-2.04-.95-2.85-1.9-.14-.68-.41-1.49.4-2.05M152.49,19.62c.41-2.04,3-.95,4.21-2.04.95-.14,1.91-.54,2.86-.27l.14.27c0,.13,0,.28-.14.41-.41.82-1.23,1.63-2.03,2.18-1.09.81-2.32,1.35-3.55,2.03-.26.13-.54-.28-.82-.28-.54-.67-.95-1.49-.67-2.3M188.53,33.91c-.95.81-2.04.81-3.12.95-.95.27-1.77-.14-2.72-.14h-.55c-2.58.14-5.17-.13-7.61-.13-2.31-.14-4.51-.14-6.67,0-.27,0-.54,0-.82.13-1.9.14-4.21,0-6.25.14l-.55.13c-.13.14-.41.14-.67.14-1.77,0-3.53-.14-5.17.13-.54,0-1.36.27-1.77-.41-.67-1.22.41-2.31,1.23-3.14,1.9-.27,3.8-.53,5.71-.81,2.44-.41,4.89-.68,7.48-.54.68,0,1.49,0,2.17.13h2.05c1.09.13,2.17.13,3.27,0,1.9,0,3.8,0,5.7.27.82.14,1.64.14,2.46.14,2.03,0,4.21-.27,5.7,1.09.28.54.28,1.36.13,1.91M188.67,22.89l-.14,4.76c-.13.68-.95.68-1.36.41-1.76-.54-3.12-2.04-4.48-3.26-.15,0-.28-.14-.41-.28-.41-.41-.41-.95-.14-1.36.27-.13.4-.27.55-.41.4-.54.95-1.23,1.77-1.09,1.21-.14,1.08-1.49,1.76-2.03l.95-1.49c.54,0,1.63-.69,1.77.41-.26,1.35-.67,2.85-.26,4.35M188.53,14.04c-2.04,1.22-3.94.55-5.84-.27-.82-.28-1.64-.54-2.46-.81-.67-.82-.13-2.04.27-2.86.82,0,1.5-.14,2.19,0,1.49,0,2.98.41,4.48.68.68-.13,1.09.41,1.77.41.55.95-.13,2.04-.41,2.85"/>
    <path class="cls-1" d="M257.75,27.38c-.41-2.18-3-2.33-4.61-3-1.51.13-2.46.95-3.96,1.08-.67-.54-1.36-1.35-1.76-2.03-.56-2.17,1.49-3.39,2.71-4.76.14-.81.14-1.76-.54-2.18-.41-.14-1.08,0-1.35.14l-8.02.13c-.83-.13-1.36.27-2.04,0h-.14c-1.62.54-3-.28-4.76,0-.41-.13-.82-.28-1.36-.28-1.23-.14-2.58-.14-3.81-.68-.67,0-1.36.41-1.9.14-.94-.82-2.31-1.64-2.03-2.99.26-.28.68-.41,1.09-.41.94-.82,1.89-.54,2.84-.41.68.14,1.36.14,2.04-.13.68,0,1.23-.28,1.77-.54.41-.13.95-.13,1.36.13,1.08.82,2.44.54,3.67,0,.41.14.81.29,1.23.29.41.13.81.13,1.21.13,1.9.67,4.22.27,6.12.67,2.19-.27,4.09.69,6.25.28.97-.28,1.65-.95,1.92-1.91,0-.81-.53-1.36-.82-2.03-.4-.82-1.36-.68-2.17-.68-2.58-.68-5.72-.27-8.16-1.09-1.63-.81-2.86-2.31-4.35-3.4-1.09-.81-2.32-1.36-3.67-1.36-1.91-.13-1.23,2.04-2.18,3l.54,1.64c-.27.26-.54.41-.95.54-.54.14-1.36.27-2.04.27-.54-.13-1.09-.27-1.77-.27-1.09-.13-2.31,0-3.39.27-1.1.13-1.65,1.49-2.73,1.9-.28-.27-.4-.54-.67-.82-2.32-3-5.7-3.95-8.97-5.17-1.1.15-2.31-.81-3.41,0-1.23.56-1.35,1.91-1.23,3.13,1.37,3.13,4.63,4.22,7.22,5.58,2.03.82,4.07,2.04,6.26,2.45,1.35.68,2.44,2.17,3.94,2.31.68.27.68,1.09.81,1.77.13,1.22-1.21,1.63-1.63,2.72-1.49.95-3.27,1.36-4.76,2.31-1.62-1.77-3.54-2.98-5.44-3.94-3.4-2.04-4.08-6.68-8.03-7.49-.95-.27-2.17-.27-2.72.55-.28,1.63.26,3.12.81,4.35.95,3.4,4.49,5.32,7.22,7.47,1.21,2.33-1.65,3-2.6,4.5-1.22,1.35-3.82,1.08-3.95,3.4-.81,1.08-.81,2.58-.54,3.93.42.96,1.5,1.09,2.31,1.35,2.31,0,4.09-1.49,5.31-3.26,1.63-2.18,3.13-4.48,5.02-6.53.41-.54.69-1.49,1.37-1.77,1.49-.27,2.99.28,3.94,1.36-.14,1.08-.82,1.9-1.5,2.72-.4,1.23-1.63,2.18-2.17,3.27-.54.55-.54,1.49-.42,2.31.28.4.69.68,1.24.54,1.49-.4,2.99-.68,4.34-1.36,1.51-.41,3-.55,4.35-.55s2.58.14,3.81.41c1.22.13,2.31.41,3.42.68.81.27,1.89,0,2.57.41q.14,0,.28.13c2.18,1.23,4.62,1.76,6.94,2.32,2.17.4,3.94,2.17,6.26,1.9.39-.28.68-.41,1.09-.96.13-.54,0-1.23-.41-1.64-1.92-1.75-4.36-2.57-6.94-2.98-.82-.41-.82-1.35-.68-2.04.28-1.36.4-2.58.95-3.8.27-.28.81-.28,1.09,0,1.77-.28,3,.67,4.49,1.09,2.57.26,4.63-.42,6.39-1.78.28-.4.68-.8.41-1.34M230.42,32.81h-2.31l-2.58.15c-.26-.28-.95-.54-.95-1.09,0-1.09-.27-2.45.41-3.4v-.67c.69-.54,1.38-1.37,2.18-1.77h.95c1.23,0,2.31.53,3.54.67l.14.28c-.14,2.05.13,4.35-1.36,5.84M231.91,23.97h-1.36c-.68-.41-1.63-.26-2.17-1.07-.28-1.38.27-2.86,1.35-3.82.69-.14,1.5-.14,2.18-.14.55,0,.95,0,1.36.14l2.31.82c.27,1.09-.55,2.03-.81,3.01-.55,1.21-1.64,1.21-2.86,1.07M241.45,30.64c0,1.23-.16,2.72-1.1,3.54-.42.14-.96,0-1.23-.26-.41,0-.68-.14-.95-.14-1.09-.13-2.19-.41-3.27-.81-.82-.69-.4-2.18-.4-3.27.53-.96,1.08-2.17,2.31-2.59.41,0,.95-.13,1.36,0,1.21,0,2.44.42,3.54.69.4.94,0,1.9-.26,2.85M243.07,23.71c-1.49-.15-3.68.95-4.89,0-.28-.15-.41-.42-.54-.69-.15-.95.26-1.9.54-2.72,0-.13,0-.26.13-.26,1.49-1.77,4.22-.82,6.12-1.1.54.28.68.69.81,1.24-.54,1.22-.69,3.11-2.17,3.54"/>
    <path class="cls-1" d="M315.42,27.92c.27-1.09.69-2.18.41-3.26-.14-.4-.68-.81-1.23-.54-1.77.54-3.26,1.49-4.9,2.44-5.02,1.5-9.66-.53-13.32-3.8-.41-.95-1.36-1.76-1.91-2.85,0-.54,0-1.08.55-1.36,1.49-.28,2.72-1.36,4.22-1.63,1.77-.68,3.53-.41,5.3-.68,1.09.41,2.59.27,3.67,0,.69-.68.81-1.77.56-2.73-.96-.67-1.64-1.62-2.59-2.03-1.23-.41-2.05.27-2.99.67-1.64,1.1-3.41,1.91-5.18,2.46-1.22.27-1.9,1.49-3.26,1.22-.4-1.08-1.49-2.17-.66-3.53,0-.82,0-1.76-.15-2.45.27-1.22,0-2.86.15-4.22.13-1.09,1.08-1.62,1.62-2.45.28-.95,0-1.89-.68-2.44-.68-.54-1.36-.82-2.17-.68-1.64,0-1.64,1.77-2.04,2.86-.27.67,0,1.77-.4,2.3-.15.69,0,1.36.13,1.91.4,3.54-.13,7.34.27,10.88-.13.54.13,1.49-.55,1.77-.95-.27-1.76.81-2.58.41-.95-.41-.13-1.36,0-1.91-.13-1.35.55-2.72.14-3.95-.55-2.31-1.22-4.34-3.26-5.98-1.49-1.49-2.45-4.07-4.9-4.62h-.68c-.95.13-1.9.54-2.44,1.49-.69,1.5,0,3.95-2.18,4.63-2.44.69-4.77,1.76-7.34,1.9-1.63.68-3.27,1.64-4.63,2.86-.95,1.36-1.49,2.99-1.37,4.76.15.95,1.09,1.08,1.78,1.22,2.98.69,5.16-3.4,8.02-.81.82,1.37,3.26,2.58,2.73,4.76-.95,1.5-2.45,2.17-4.09,2.58-1.36,1.5-3.41,1.5-5.16,1.92-1.65.67-2.19,2.57-2.47,4.21-.53,1.09-.26,2.59-.13,3.81,1.36,1.09,3-.14,4.49-.41,1.77-.95,3.39-2.31,5.31-2.85,1.21-1.09,2.85-1.36,4.08-2.45,1.22-.41,2.45-1.08,3.4-2.03,1.9-1.36,3.53-3.13,5.16-4.63.28-.81,1.09-1.5,1.5-2.18,1.21-.13,2.17.95,3.39.95,1.22.82,2.32,2.03,2.18,3.67-.54,1.09-.41,2.46-.41,3.81-.55.67,0,1.77-.68,2.31-.41,1.91-.81,3.95-.54,6.12-.13,1.77,1.22,3.27,2.45,4.48.67-.13,1.63.28,2.18-.26v-12.51c.26-.96-.68-1.77.13-2.59,1.1-1.08,2.04.55,3.12.95,2.86,3.26,6.39,5.57,10.34,6.79,1.9.54,3.26-.54,4.5-1.9.81-1.64,1.76-3.26,2.58-4.9-.28-.69.8-.82.53-1.49M281.82,20.17c-.95.13-1.89.67-2.85.95-.55.13-1.23.13-1.9-.14-1.09-.81-3-1.36-3.13-2.99.54-1.36,1.64-2.72,2.86-3.54.81-.28,1.49-.68,2.18-.96,1.08-.26,2.17-.54,3.26-.4l.67.68c.56,1.09,1.38,2.18,1.23,3.54-1.08.82-.81,2.58-2.32,2.86"/>
    <path class="cls-1" d="M100.2,65.34c-.09.32-.15.64-.18.95-1.18.62-2.69.93-4.49.93-1.28,0-2.42-.19-3.43-.56-1-.38-1.86-.89-2.55-1.57-.7-.67-1.23-1.47-1.61-2.38-.36-.92-.55-1.92-.55-3,0-1.56.23-2.9.72-4,.48-1.08,1.11-1.98,1.92-2.66.79-.68,1.72-1.19,2.78-1.51,1.05-.32,2.16-.47,3.33-.47.38,0,.78.02,1.21.09.42.06.83.14,1.22.23.41.1.78.23,1.15.36.36.13.67.28.91.43-.15.38-.26.77-.35,1.15-.08.38-.13.77-.15,1.17h-.32c-.56-.72-1.13-1.24-1.72-1.55-.6-.31-1.28-.47-2.07-.47-.6,0-1.18.15-1.78.41-.59.28-1.13.69-1.62,1.25-.49.56-.88,1.27-1.18,2.14-.29.87-.44,1.91-.44,3.11s.15,2.16.45,2.98c.32.82.72,1.49,1.21,2.03.49.51,1.05.9,1.67,1.13.62.25,1.26.37,1.88.37.35,0,.72-.05,1.09-.12.36-.09.72-.2,1.07-.34.35-.14.68-.32,1.02-.54.31-.21.58-.44.81-.71l.29.2c-.12.31-.22.63-.32.96"/>
    <path class="cls-1" d="M115.3,59.36c-.56-.01-1.11-.05-1.67-.05s-1.11.02-1.67.03c-.56.01-1.11.03-1.67.06v1.31c0,1.24.02,2.37.04,3.34.02.98.07,1.94.13,2.88-.25-.04-.52-.07-.8-.07h-2c-.3,0-.57.02-.81.07.05-.94.1-1.89.13-2.87.03-.97.04-2.09.04-3.34v-3.08c0-1.24,0-2.37-.04-3.34-.03-.98-.07-1.95-.13-2.93.24.03.51.06.81.09.3.01.63.03,1,.03s.68-.02,1-.03c.28-.03.56-.06.8-.09-.07.97-.12,1.94-.14,2.89-.03.95-.03,2.05-.03,3.3.38,0,.84.02,1.37.04.54,0,1.2,0,1.99,0s1.43,0,1.93,0c.51-.02.96-.03,1.38-.04,0-1.25,0-2.35-.03-3.3-.03-.95-.08-1.92-.13-2.89.26.03.52.06.82.09.29.01.63.03.99.03s.69-.02.99-.03c.3-.03.57-.06.82-.09-.05.98-.11,1.95-.13,2.93-.03.96-.06,2.07-.06,3.31v3.09c0,1.26.02,2.37.06,3.35.01.98.07,1.94.13,2.88-.26-.04-.52-.07-.82-.07h-1.98c-.3,0-.57.02-.82.07.05-.94.11-1.89.13-2.88.03-.97.03-2.1.03-3.34v-1.31c-.55-.01-1.1-.03-1.66-.05"/>
    <path class="cls-1" d="M127.95,54.31c-.03-.98-.07-1.95-.13-2.93.26.03.52.06.82.09.28.01.62.03.98.03s.7-.02,1-.03c.3-.03.57-.06.81-.09-.06.98-.1,1.95-.12,2.93-.03.97-.04,2.09-.04,3.34v3.08c0,1.26,0,2.37.04,3.34.02.98.06,1.93.12,2.87-.24-.04-.51-.07-.81-.07h-1.98c-.3,0-.56.02-.82.07.06-.94.1-1.89.13-2.87.04-.97.05-2.09.05-3.34v-3.08c0-1.24,0-2.37-.05-3.34"/>
    <path class="cls-1" d="M139.15,53.25c-.04-.71-.05-1.34-.07-1.88.41.09.73.12.98.12s.58-.03,1-.12c1.6,1.83,3.19,3.62,4.76,5.38,1.57,1.77,3.18,3.58,4.82,5.4v-4.16c0-.74,0-1.47-.01-2.19,0-.72,0-1.37-.02-1.98,0-.61-.03-1.13-.05-1.56-.01-.44-.04-.73-.07-.88.41.09.73.12,1,.12.23,0,.56-.03.98-.12-.08,1.37-.13,2.62-.18,3.73-.05,1.1-.08,2.16-.11,3.14-.03.98-.05,1.94-.06,2.91,0,.95-.02,1.98-.02,3.05v2.73c-.29-.04-.59-.07-.9-.07-.33,0-.61.02-.87.07-3.02-3.63-6.22-7.27-9.62-10.94-.02.44-.04.87-.04,1.31-.02.43-.03.88-.03,1.34v2.62c0,.9,0,1.67.02,2.31,0,.64.03,1.17.03,1.62.03.44.05.79.06,1.07.02.28.04.49.05.67-.18-.04-.36-.07-.53-.07h-.51c-.34,0-.67.02-1.02.07.04-.13.06-.56.12-1.29.04-.75.09-1.64.14-2.7.04-1.06.09-2.22.13-3.47.03-1.24.05-2.44.05-3.58,0-1.04-.02-1.92-.04-2.63"/>
    <path class="cls-1" d="M171.93,66.93c-.35-.04-.68-.07-1-.07h-1.88c-.31,0-.61.02-.93.07-.25-.75-.49-1.51-.73-2.28-.25-.77-.52-1.55-.79-2.31-.48-.03-.94-.04-1.41-.05-.48,0-.95-.01-1.42-.01-.37,0-.75,0-1.13.01-.38,0-.76.02-1.15.05-.29.76-.57,1.54-.81,2.31-.24.77-.48,1.53-.68,2.28-.17-.04-.35-.07-.52-.07h-1.05c-.16,0-.36.02-.56.07.18-.39.41-.94.7-1.63.3-.7.63-1.49.97-2.37.37-.87.74-1.81,1.15-2.81.4-1,.8-2.01,1.2-3.05.4-1.03.8-2.04,1.19-3.03.39-1,.73-1.93,1.06-2.79.15.02.29.06.41.08.13.03.28.04.42.04.16,0,.28,0,.43-.04.13-.02.27-.06.41-.08.48,1.28.99,2.66,1.51,4.13.54,1.46,1.06,2.9,1.62,4.32.55,1.41,1.08,2.75,1.6,4.01.5,1.28.98,2.34,1.41,3.23M164.12,55.63c-.38.9-.75,1.79-1.07,2.67-.35.9-.67,1.79-1,2.71h4.03c-.32-.92-.64-1.81-.96-2.71-.31-.88-.64-1.77-1-2.67"/>
    <path class="cls-1" d="M187.22,56.03c.43-.98.98-1.83,1.72-2.57.73-.74,1.63-1.32,2.68-1.74,1.04-.42,2.19-.63,3.47-.63,1.17,0,2.27.16,3.29.49,1.01.34,1.9.84,2.64,1.49.75.67,1.34,1.51,1.78,2.53.43,1.03.64,2.21.64,3.57,0,1.14-.21,2.2-.62,3.18-.42.97-1.01,1.84-1.75,2.56-.74.74-1.63,1.31-2.65,1.71-1.03.42-2.16.62-3.39.62-1.16,0-2.25-.15-3.27-.45-1.03-.29-1.91-.77-2.65-1.42-.76-.66-1.36-1.5-1.81-2.52-.44-1.02-.65-2.23-.65-3.64,0-1.13.19-2.17.59-3.17M199.47,56.05c-.24-.78-.56-1.44-.99-1.98-.41-.55-.92-.96-1.52-1.26-.59-.3-1.24-.44-1.95-.44-.75,0-1.42.18-2.02.54-.59.37-1.1.88-1.5,1.52-.42.63-.73,1.38-.95,2.22-.2.85-.31,1.77-.31,2.72,0,1.22.13,2.24.37,3.06.24.84.6,1.51,1.01,2.01.43.51.92.87,1.47,1.1.56.23,1.16.34,1.76.34.66,0,1.3-.15,1.9-.44.59-.29,1.13-.72,1.58-1.31.43-.6.81-1.34,1.08-2.25.26-.9.4-1.97.4-3.22,0-.98-.11-1.87-.35-2.64"/>
    <path class="cls-1" d="M217.67,56.95c.72-1.95,1.37-3.8,1.93-5.58.37.09.69.12.98.12.26,0,.6-.03.96-.12-.36.89-.81,1.96-1.33,3.21-.51,1.25-1.04,2.58-1.6,3.99-.57,1.4-1.11,2.83-1.65,4.27-.56,1.45-1.03,2.81-1.46,4.09-.29-.04-.61-.07-.97-.07-.34,0-.67.02-.98.07-.21-.6-.48-1.34-.8-2.2-.31-.86-.64-1.77-1.01-2.73-.36-.97-.75-1.95-1.15-2.97-.39-1.01-.78-1.98-1.13-2.93-.37-.95-.72-1.82-1.05-2.65-.32-.81-.59-1.51-.83-2.08.33.03.66.06,1.01.09.33.01.66.03.97.03s.65-.02.98-.03c.32-.03.64-.06.96-.09.26.85.54,1.74.84,2.67.34.94.65,1.89.99,2.86.33.99.69,1.96,1.05,2.94.35.98.7,1.94,1.04,2.89.76-1.92,1.5-3.84,2.22-5.78"/>
    <path class="cls-1" d="M227.29,54.31c-.03-.98-.06-1.95-.13-2.93.67.02,1.32.03,1.97.07.65.03,1.3.05,1.97.05,1.08,0,2.05-.02,2.89-.03.84-.03,1.41-.06,1.71-.09-.06.24-.09.56-.09.95,0,.23,0,.43.03.57,0,.13.04.28.06.45-.44-.03-.9-.06-1.4-.09-.51-.03-.99-.06-1.48-.1-.48-.03-.91-.05-1.29-.06-.39-.01-.66-.03-.81-.03-.06.83-.1,1.65-.11,2.47,0,.82-.02,1.63-.02,2.46.96-.01,1.82-.03,2.59-.06.78-.03,1.58-.07,2.42-.12-.04.27-.08.46-.09.59-.02.13-.03.28-.03.43,0,.13,0,.24.03.38.02.13.05.31.08.55-1.68-.14-3.35-.21-5.01-.21,0,.48,0,.96,0,1.44-.01.49-.01.96-.01,1.46,0,.97.01,1.9.05,2.82.84,0,1.68-.03,2.52-.07.82-.04,1.67-.12,2.53-.21-.03.17-.04.33-.07.45-.01.14-.03.33-.03.57s.02.44.03.56c.03.14.04.26.07.35-.4-.02-.88-.04-1.47-.05-.58,0-1.38-.02-2.39-.02h-3.49c-.33,0-.58.02-.74.02-.17,0-.31.03-.43.05.07-.94.1-1.89.13-2.87.03-.97.05-2.09.05-3.34v-3.08c0-1.24-.02-2.37-.05-3.34"/>
    <path class="cls-1" d="M245.57,59.81v.92c0,1.25,0,2.37.05,3.34.02.98.07,1.93.12,2.87-.25-.04-.51-.07-.82-.07h-1.98c-.29,0-.56.02-.82.07.06-.94.1-1.89.14-2.87.03-.97.04-2.09.04-3.34v-3.08c0-1.24,0-2.37-.04-3.34-.04-.98-.08-1.95-.14-2.93.26.03.53.06.82.09.29.01.63.03.99.03.4,0,.85-.02,1.35-.05.51-.05,1.14-.06,1.89-.06.56,0,1.03.02,1.43.05.4.04.74.07,1.03.14.29.06.53.13.75.23.21.1.41.22.61.36.44.33.8.73,1.03,1.23.27.49.4,1.08.4,1.75,0,1.1-.29,2-.88,2.69-.59.7-1.44,1.19-2.54,1.48.7,1.28,1.46,2.55,2.28,3.83.8,1.28,1.61,2.54,2.41,3.8-.34-.04-.65-.07-.99-.07h-1.99c-.33,0-.67.02-1.01.07l-3.93-7.12h-.2ZM248.84,54.04c-.13-.39-.33-.69-.6-.89-.27-.19-.63-.34-1.05-.39-.44-.06-.95-.09-1.55-.09-.05,2.06-.07,4.1-.07,6.16.08.01.17.02.25.02.09,0,.16.02.24.02.96,0,1.7-.27,2.22-.81.52-.54.77-1.34.77-2.44,0-.66-.07-1.18-.2-1.59"/>
    <path class="cls-1" d="M263.35,52.49c-.67,0-1.23.2-1.66.62-.42.41-.63.88-.63,1.42s.17,1.01.49,1.36c.33.36.74.68,1.24.97.52.28,1.05.56,1.62.83.57.26,1.1.58,1.61.97.51.38.93.86,1.26,1.4.32.56.49,1.27.49,2.11,0,.76-.14,1.45-.43,2.08-.27.63-.67,1.16-1.18,1.6-.52.45-1.14.8-1.85,1.02-.71.25-1.52.36-2.4.36-.79,0-1.49-.1-2.12-.26-.63-.19-1.11-.4-1.43-.64.14-.53.27-1.01.38-1.44.11-.44.18-.92.26-1.42h.43c.07.32.17.64.33.94.17.29.36.55.62.78.24.23.55.4.91.53.35.12.74.19,1.19.19.88,0,1.54-.23,1.96-.69.42-.44.63-1,.63-1.62,0-.58-.16-1.05-.49-1.41-.31-.37-.72-.68-1.22-.96-.48-.28-1.02-.56-1.59-.81-.57-.26-1.11-.59-1.6-.97-.49-.38-.9-.83-1.21-1.39-.33-.55-.49-1.26-.49-2.12,0-.78.13-1.47.41-2.08.27-.6.64-1.11,1.09-1.52.46-.41.98-.72,1.58-.93.59-.21,1.22-.31,1.88-.31.8,0,1.49.09,2.08.29.59.2,1.1.47,1.54.82-.14.35-.26.69-.34,1.01-.11.33-.23.74-.39,1.24h-.32c-.48-1.3-1.36-1.95-2.66-1.95"/>
    <path class="cls-1" d="M274.02,54.31c-.01-.98-.06-1.95-.12-2.93.66.02,1.31.03,1.96.07.65.03,1.3.05,1.97.05,1.09,0,2.04-.02,2.89-.03.85-.03,1.42-.06,1.71-.09-.05.24-.08.56-.08.95,0,.23,0,.43.03.57,0,.13.02.28.05.45-.42-.03-.9-.06-1.41-.09-.5-.03-.98-.06-1.47-.1-.48-.03-.91-.05-1.28-.06-.4-.01-.66-.03-.82-.03-.06.83-.09,1.65-.1,2.47,0,.82,0,1.63,0,2.46.95-.01,1.8-.03,2.59-.06.76-.03,1.57-.07,2.4-.12-.05.27-.07.46-.08.59-.02.13-.03.28-.03.43,0,.13.02.24.04.38.02.13.04.31.07.55-1.67-.14-3.33-.21-4.99-.21,0,.48,0,.96-.02,1.44-.02.49-.02.96-.02,1.46,0,.97.03,1.9.06,2.82.84,0,1.67-.03,2.51-.07.84-.04,1.68-.12,2.55-.21-.05.17-.06.33-.07.45-.02.14-.03.33-.03.57s0,.44.03.56c0,.14.03.26.07.35-.4-.02-.9-.04-1.48-.05-.59,0-1.38-.02-2.4-.02h-3.47c-.34,0-.58.02-.75.02-.16,0-.31.03-.42.05.05-.94.11-1.89.12-2.87.03-.97.05-2.09.05-3.34v-3.08c0-1.24-.02-2.37-.05-3.34"/>
    <path class="cls-1" d="M301.47,66.93c-.35-.04-.67-.07-.99-.07h-1.88c-.32,0-.63.02-.94.07-.24-.75-.48-1.51-.72-2.28-.26-.77-.51-1.55-.8-2.31-.48-.03-.94-.04-1.41-.05-.48,0-.95-.01-1.42-.01-.37,0-.75,0-1.14.01-.37,0-.75.02-1.14.05-.3.76-.57,1.54-.81,2.31-.25.77-.48,1.53-.68,2.28-.18-.04-.35-.07-.53-.07h-1.04c-.18,0-.37.02-.57.07.17-.39.41-.94.71-1.63.3-.7.62-1.49.96-2.37.36-.87.73-1.81,1.14-2.81.4-1,.8-2.01,1.21-3.05.4-1.03.8-2.04,1.18-3.03.4-1,.75-1.93,1.08-2.79.13.02.28.06.42.08.13.03.27.04.41.04.15,0,.28,0,.41-.04.13-.02.28-.06.42-.08.47,1.28.97,2.66,1.51,4.13.54,1.46,1.07,2.9,1.62,4.32.54,1.41,1.08,2.75,1.59,4.01.51,1.28.98,2.34,1.4,3.23M293.68,55.63c-.39.9-.75,1.79-1.08,2.67-.35.9-.67,1.79-1,2.71h4.04c-.33-.92-.64-1.81-.96-2.71-.31-.88-.65-1.77-.99-2.67"/>
    <path class="cls-1" d="M311.33,52.49c-.68,0-1.23.2-1.65.62-.44.41-.65.88-.65,1.42s.17,1.01.5,1.36c.32.36.74.68,1.25.97.5.28,1.04.56,1.61.83.58.26,1.11.58,1.61.97.5.38.92.86,1.25,1.4.32.56.5,1.27.5,2.11,0,.76-.14,1.45-.42,2.08-.28.63-.68,1.16-1.19,1.6-.53.45-1.14.8-1.84,1.02-.72.25-1.52.36-2.41.36-.8,0-1.52-.1-2.13-.26-.64-.19-1.11-.4-1.43-.64.16-.53.28-1.01.38-1.44.1-.44.21-.92.27-1.42h.42c.06.32.17.64.33.94.16.29.38.55.62.78.24.23.55.4.9.53.36.12.75.19,1.2.19.89,0,1.54-.23,1.95-.69.42-.44.64-1,.64-1.62,0-.58-.17-1.05-.49-1.41-.33-.37-.73-.68-1.22-.96-.5-.28-1.03-.56-1.59-.81-.59-.26-1.1-.59-1.59-.97-.49-.38-.9-.83-1.23-1.39-.31-.55-.48-1.26-.48-2.12,0-.78.13-1.47.41-2.08.27-.6.64-1.11,1.08-1.52.47-.41.99-.72,1.59-.93.59-.21,1.23-.31,1.88-.31.79,0,1.49.09,2.08.29.59.2,1.11.47,1.53.82-.13.35-.25.69-.34,1.01-.11.33-.22.74-.36,1.24h-.34c-.46-1.3-1.37-1.95-2.66-1.95"/>
  </g>
</svg>